<?xml version="1.0" encoding="UTF-8" standalone="no"?>
<!DOCTYPE svg PUBLIC "-//W3C//DTD SVG 1.1//EN" "http://www.w3.org/Graphics/SVG/1.1/DTD/svg11.dtd">
<svg width="100%" height="100%" viewBox="0 0 707 154" version="1.1" xmlns="http://www.w3.org/2000/svg" xmlns:xlink="http://www.w3.org/1999/xlink" xml:space="preserve" xmlns:serif="http://www.serif.com/" style="fill-rule:evenodd;clip-rule:evenodd;stroke-linejoin:round;stroke-miterlimit:2;">
    <g transform="matrix(1,0,0,1,-1.39583,-0.841665)">
        <g transform="matrix(4.16667,0,0,4.16667,0,0)">
            <path d="M159.232,6.14L163.616,0.202L151.277,0.202C143.418,0.202 138.753,0.202 136.194,4.286L133.054,9.508L118.788,9.508C120.195,6.98 120.271,6.148 123.484,6.148L131.97,6.148L135.585,0.202L66.571,0.202C63.103,0.202 58.357,1.001 56.202,1.82C54.069,2.707 51.789,4.033 50.277,5.489C48.081,7.468 46.665,9.661 44.822,12.868C46.106,6.954 41.819,2.545 39.624,1.612C37.863,0.657 36.496,0.362 35.253,0.202L4.769,0.202L0.335,6.186L28.675,6.148C36.848,6.148 33.696,11.959 32.526,14.102C30.562,17.809 28.168,18.481 26.851,18.481L21.718,18.481L26.514,9.508L13.68,9.508L5.709,24.332L30.668,24.332C34.922,24.332 40.441,20.827 42.145,18.016C41.003,20.258 39.805,22.486 38.917,24.332L51.575,24.332L56.72,15.187L63.457,15.171L58.329,24.332L70.115,24.332L80.212,6.132L89.621,6.132L79.578,24.332L91.205,24.332L101.248,6.132L110.348,6.132L104.739,16.24C104.014,17.559 103.33,19.629 103.662,20.88C104.035,22.154 105.762,24.332 107.764,24.201L124.447,24.332L127.297,18.481L117.371,18.481C115.075,18.481 114.981,17.612 116.588,14.511L130.729,14.525C126.586,22.273 130.545,24.332 137.649,24.332L164.189,24.332L169.847,18.515L146.067,18.481C141.503,18.448 141.957,15.589 142.364,14.37C143.55,11.32 143.301,11.761 144.63,9.152C145.272,7.832 146.321,6.307 149.242,6.148L159.232,6.14ZM68.584,6.148L66.196,10.377L59.53,10.377C61.296,7.82 63.024,6.088 68.584,6.148Z" style="fill:rgb(244,121,32);fill-rule:nonzero;"/>
            <path d="M5.834,36.891L7.398,36.891L7.398,31.133L5.834,31.133L5.834,36.891ZM10.705,32.229L12.303,32.229C13.497,32.229 13.948,32.891 13.948,33.956C13.948,35.174 13.48,35.795 12.448,35.795L10.705,35.795L10.705,32.229ZM9.141,36.891L12.867,36.891C14.674,36.891 15.561,35.747 15.561,34.012C15.561,32.278 14.706,31.133 12.73,31.133L9.141,31.133L9.141,36.891ZM17.102,36.891L22.513,36.891L22.513,35.795L18.666,35.795L18.666,34.471L22.288,34.471L22.288,33.424L18.666,33.424L18.666,32.229L22.481,32.229L22.481,31.133L17.102,31.133L17.102,36.891ZM24.023,36.891L29.434,36.891L29.434,35.795L25.587,35.795L25.587,34.471L29.208,34.471L29.208,33.424L25.587,33.424L25.587,32.229L29.402,32.229L29.402,31.133L24.023,31.133L24.023,36.891ZM35.799,35.149L35.783,35.149L32.757,31.133L30.943,31.133L30.943,36.891L32.459,36.891L32.459,32.875L32.475,32.875L35.613,36.891L37.314,36.891L37.314,31.133L35.799,31.133L35.799,35.149ZM42.632,36.891L43.841,36.891L43.841,34.617L45.898,34.617C46.786,34.617 46.899,35.197 46.899,36.02C46.899,36.44 46.955,36.73 47.044,36.891L48.349,36.891C48.115,36.577 48.107,35.931 48.107,35.657C48.107,34.843 47.954,34.246 47.269,34.101L47.269,34.085C47.809,33.916 48.22,33.448 48.22,32.697C48.22,31.802 47.745,31.133 46.277,31.133L42.632,31.133L42.632,36.891ZM43.841,33.714L43.841,32.036L45.93,32.036C46.568,32.036 46.963,32.27 46.963,32.867C46.963,33.513 46.6,33.714 45.93,33.714L43.841,33.714ZM49.802,34.416C49.802,35.368 49.834,37.052 52.617,37.052C55.407,37.052 55.439,35.368 55.439,34.416L55.439,31.133L54.23,31.133L54.23,34.384C54.23,35.182 54.198,36.15 52.617,36.15C51.043,36.15 51.011,35.182 51.011,34.384L51.011,31.133L49.802,31.133L49.802,34.416ZM57.215,36.891L58.375,36.891L58.375,32.568L58.391,32.568L61.844,36.891L63.207,36.891L63.207,31.133L62.046,31.133L62.046,35.457L62.03,35.457L58.601,31.133L57.215,31.133L57.215,36.891ZM66.239,32.036L67.877,32.036C68.555,32.036 69.741,32.149 69.741,34.02C69.741,35.707 68.813,35.989 67.942,35.989L66.239,35.989L66.239,32.036ZM65.031,36.891L68.426,36.891C70.386,36.891 70.95,35.311 70.95,34.069C70.95,32.423 70.394,31.133 68.135,31.133L65.031,31.133L65.031,36.891ZM75.984,34.416C75.984,35.368 76.016,37.052 78.798,37.052C81.589,37.052 81.621,35.368 81.621,34.416L81.621,31.133L80.412,31.133L80.412,34.384C80.412,35.182 80.38,36.15 78.798,36.15C77.225,36.15 77.193,35.182 77.193,34.384L77.193,31.133L75.984,31.133L75.984,34.416ZM83.396,36.891L84.533,36.891L84.484,32.132L84.5,32.132L86.614,36.891L87.647,36.891L89.777,32.132L89.793,32.132L89.744,36.891L90.881,36.891L90.881,31.133L89.155,31.133L87.155,35.601L85.138,31.133L83.396,31.133L83.396,36.891ZM97.663,32.229L99.26,32.229C100.455,32.229 100.906,32.891 100.906,33.956C100.906,35.174 100.438,35.795 99.406,35.795L97.663,35.795L97.663,32.229ZM96.099,36.891L99.825,36.891C101.632,36.891 102.519,35.747 102.519,34.012C102.519,32.278 101.664,31.133 99.688,31.133L96.099,31.133L96.099,36.891ZM103.738,34.012C103.738,35.214 104.221,37.052 107.318,37.052C110.415,37.052 110.899,35.214 110.899,34.012C110.899,32.81 110.415,30.972 107.318,30.972C104.221,30.972 103.738,32.81 103.738,34.012ZM105.398,34.012C105.398,33.117 105.898,32.068 107.318,32.068C108.738,32.068 109.239,33.117 109.239,34.012C109.239,34.908 108.738,35.957 107.318,35.957C105.898,35.957 105.398,34.908 105.398,34.012ZM113.883,33.609L113.883,31.133L112.32,31.133L112.32,36.891L113.883,36.891L113.883,35.182L114.795,34.399L116.755,36.891L118.868,36.891L116.021,33.448L118.666,31.133L116.561,31.133L113.883,33.609ZM119.918,34.827C119.918,35.473 119.998,37.052 122.942,37.052C125.886,37.052 125.966,35.473 125.966,34.827L125.966,31.133L124.402,31.133L124.402,34.44C124.402,35.005 124.378,35.957 122.942,35.957C121.506,35.957 121.481,35.005 121.481,34.44L121.481,31.133L119.918,31.133L119.918,34.827ZM131.653,35.278L129.943,31.133L127.645,31.133L127.645,36.891L129.16,36.891L129.16,32.278L129.176,32.278L131,36.891L132.307,36.891L134.13,32.278L134.146,32.278L134.146,36.891L135.661,36.891L135.661,31.133L133.363,31.133L131.653,35.278ZM137.404,36.891L142.816,36.891L142.816,35.795L138.968,35.795L138.968,34.471L142.59,34.471L142.59,33.424L138.968,33.424L138.968,32.229L142.783,32.229L142.783,31.133L137.404,31.133L137.404,36.891ZM149.181,35.149L149.165,35.149L146.139,31.133L144.325,31.133L144.325,36.891L145.84,36.891L145.84,32.875L145.857,32.875L148.995,36.891L150.696,36.891L150.696,31.133L149.181,31.133L149.181,35.149ZM154.02,36.891L155.584,36.891L155.584,32.229L157.721,32.229L157.721,31.133L151.883,31.133L151.883,32.229L154.02,32.229L154.02,36.891ZM158.908,36.891L164.319,36.891L164.319,35.795L160.472,35.795L160.472,34.471L164.093,34.471L164.093,33.424L160.472,33.424L160.472,32.229L164.287,32.229L164.287,31.133L158.908,31.133L158.908,36.891Z" style="fill:rgb(35,31,32);fill-rule:nonzero;"/>
        </g>
    </g>
</svg>
