<?xml version="1.0" encoding="UTF-8" standalone="no"?><!DOCTYPE svg PUBLIC "-//W3C//DTD SVG 1.1//EN" "http://www.w3.org/Graphics/SVG/1.1/DTD/svg11.dtd"><svg width="100%" height="100%" viewBox="0 0 457 464" version="1.1" xmlns="http://www.w3.org/2000/svg" xmlns:xlink="http://www.w3.org/1999/xlink" xml:space="preserve" xmlns:serif="http://www.serif.com/" style="fill-rule:evenodd;clip-rule:evenodd;stroke-linejoin:round;stroke-miterlimit:2;"><path d="M228.379,459.986c-124.181,-0.079 -224.936,-100.963 -224.857,-225.144c0.08,-124.181 100.963,-224.935 225.144,-224.856c124.181,0.08 224.936,100.963 224.856,225.144c-0.079,124.181 -100.963,224.935 -225.143,224.856Zm0.005,-8.493c-119.494,-0.076 -216.445,-97.152 -216.369,-216.645c0.076,-119.494 97.152,-216.446 216.646,-216.369c119.493,0.076 216.445,97.152 216.369,216.646c-0.077,119.493 -97.152,216.445 -216.646,216.368Z" style="fill:url(#_Linear1);stroke:#d9d9d9;stroke-opacity:0;stroke-width:10px;stroke-linecap:round;stroke-miterlimit:1;"/><g><g><g id="Läufer"><g id="Sebastian"><g id="Sebastian1" serif:id="Sebastian"><path d="M370.797,176.313c0.705,-2.667 1.739,-5.223 2.196,-8.044c0.263,-1.63 -0.774,-2.317 -0.888,-3.52c-0.148,-1.562 -0.034,-4.567 -0,-5.854c0.016,-0.627 0.13,-1.276 0.206,-1.869c0.043,-0.34 0.85,-1.996 1.097,-2.383c0.337,-0.529 0.94,-2.496 1.093,-2.896c0.58,-1.515 0.687,-3.422 2.457,-3.971c0.138,-0.043 0.527,0.048 0.645,0.087c1.631,0.547 0.997,2.323 0.736,3.635c-0.028,0.142 -0.251,1.221 -0.147,1.272c0.233,0.114 1.467,-0.074 2.184,0.051c0.731,0.128 1.719,0.474 2.201,0.714c0.3,0.15 0.581,0.467 0.687,0.726c0.105,0.258 -0.188,0.697 -0.053,0.83c0.23,0.223 1.279,0.366 1.589,0.564c0.497,0.319 1.141,0.578 1.282,1.048c0.141,0.469 -0.543,1.563 -0.438,1.769c0.133,0.26 1.22,0.182 1.608,0.734c0.414,0.588 0.13,1.802 0.184,1.854c0.201,0.196 1.949,1.43 1.823,2.065c-0.165,0.828 -0.325,2.198 -0.874,2.904c-0.4,0.516 -4.782,5.684 -5.281,6.684c-0.091,0.185 -0.382,0.71 -0.382,0.9c0,0.066 -0.09,0.299 -0.086,0.299l0.013,-0.212c-0,0.661 -0.583,1.923 -0.813,2.509c-0.526,1.336 -1.734,4.624 -2.733,7.894c-1.205,3.946 -2.186,7.868 -2.353,8.307c-0.64,1.679 -1.327,3.344 -2.098,4.971c-0.747,1.575 -1.715,3.594 -2.452,4.625c-0.483,0.676 -1.403,0.947 -1.971,1.558c-1.031,1.109 -1.705,2.373 -3.45,2.171c-1.314,-0.152 -2.962,-1.376 -3.806,-1.935c-0.531,-0.353 -0.986,-0.857 -1.26,-1.424c-0.542,-1.126 -1.609,-3.478 -1.998,-5.331c-0.623,-2.979 -1.512,-10.606 -1.744,-12.547c-0.182,-1.527 -0.481,-3.378 -0.481,-4.944c-0,0 -21.179,31.481 -21.493,31.853c-0.561,0.666 -5.79,8.699 -6.584,10.135c-0.43,0.778 -1.398,2.331 -1.398,3.253c-0,-0 1.957,1.088 2.895,1.48c3.015,1.259 6.126,2.312 9.075,3.712c5.767,2.738 19.492,11.827 23.343,15.08c0.725,0.613 9.28,7.124 11.887,9.646c1.599,1.547 2.902,3.801 3.749,5.482c0.722,1.431 1.492,3.034 1.336,4.602c-0.155,1.568 -1.55,3.858 -2.271,4.803c-0.662,0.866 -2.93,3.954 -3.209,4.411c-1.781,2.905 -7.724,9.468 -9.305,11.438c-1.676,2.089 -11.017,13.345 -14.905,18.835c-3.17,4.477 -6.994,10.871 -8.421,14.106c-0.374,0.848 -0.797,1.716 -1.024,2.625c-0.418,1.675 -1.699,5.318 -1.487,7.424c0.123,1.224 0.59,4.546 1.657,6.534c1.353,2.525 5.54,7.568 6.468,8.612c2.314,2.602 5.462,5.243 8.411,7.136c1.934,1.241 5.247,1.734 5.961,4.492c1.071,4.132 -6.452,4.051 -8.951,3.816c-5.977,-0.564 -13.188,-2.072 -18.215,-5.492c-2.359,-1.605 -4.516,-4.367 -7.141,-5.657c-0,0 -3.435,-2.36 -5.412,-3.585c-3.431,-2.126 -6.324,-2.728 -6.749,-6.689c-0.139,-1.301 0.426,-2.069 0.824,-3.043c0.503,-1.232 1.4,-2.932 2.195,-4.35c0.801,-1.427 1.558,-3.037 2.607,-4.212c0.862,-0.963 0.776,0.658 1.292,0.431c1.817,-0.801 5.374,-6.603 6.383,-9.006c1.195,-2.842 6.608,-17.119 7.175,-18.54c1.471,-3.691 3.645,-8.374 4.957,-11.188c0.901,-1.931 1.824,-3.86 2.916,-5.694c1.199,-2.016 2.951,-4.536 4.28,-6.4c1.168,-1.641 3.443,-4.248 3.69,-4.792c0.37,-0.814 0.863,-3.281 0.484,-4.205c-0.379,-0.924 -1.818,-1.026 -2.756,-1.339c-2.712,-0.905 -5.086,-1.503 -7.662,-2.469c-2.219,-0.833 -3.988,-1.18 -6.03,-1.566c-2.265,-0.428 -4.268,-0.407 -7.559,-1.004c-4.756,-0.862 -16.264,-4.537 -16.505,-4.501c-0.421,0.064 -1.241,1.704 -2.11,2.103c-0.283,0.13 -1.231,-0.42 -1.659,-0.077c-0.826,0.661 -2.974,3.629 -3.297,4.043c-0.646,0.825 -6.284,7.232 -8.579,9.494c-2.158,2.124 -8.765,6.861 -11.37,9.019c-1.491,1.235 -3.067,2.424 -4.267,3.93c-1.449,1.82 -2.682,3.838 -4.432,6.99c-0.465,0.839 -0.877,1.732 -1.533,2.438c-0.838,0.902 -2.272,2.187 -3.496,2.973c-1.181,0.757 -2.598,1.093 -3.847,1.737c-1.367,0.706 -3.038,1.917 -4.101,3.019c-0.35,0.362 -2.488,1.852 -3.769,2.739c-4.053,2.803 -8.922,7.693 -10.46,9.284c-1.481,1.531 -8.297,6.825 -8.739,7.156c-2.14,1.6 -15.171,16.084 -18.611,20.546c-1.34,1.739 -1.47,4.114 -2.025,6.222c-0.709,2.695 -1.669,6.835 -2.229,9.95c-0.52,2.894 -1.683,6.386 -1.132,8.743c0.881,3.765 2.116,7.314 2.351,11.167c0.033,0.553 -0.189,1.965 -0.499,2.521c-0.523,0.944 -2.235,1.788 -3.412,1.419c-1.272,-0.4 -2.993,-2.05 -4.217,-3.813c-0.54,-0.781 -0.981,-1.626 -1.539,-2.395c-0.741,-1.023 -5.125,-11.539 -5.308,-12.249c-0.244,-0.941 -3.746,-10.102 -4.722,-12.657c-1.288,-3.372 -2.487,-6.624 -3.39,-10.131c-0.41,-1.594 0.744,-3.818 2.437,-4.655c0.616,-0.305 5.793,-1.045 5.958,-1.087c1.003,-0.254 2.046,-0.354 3.041,-0.64c0.63,-0.181 3.262,-1.341 4.549,-2.479c1.78,-1.573 5.076,-5.542 6.135,-6.962c0.563,-0.754 6.514,-9.354 9.184,-12.644c4.45,-5.484 10.06,-14.918 15.67,-19.479c3.91,-3.179 5.516,-3.76 7.83,-5.504c1.874,-1.412 5.063,-3.705 7.539,-6.159c1.712,-1.697 5.745,-8.596 6.104,-9.354c0.774,-1.634 5.697,-11.062 6.715,-13.146c1.969,-4.03 5.015,-8.748 5.714,-9.686c0.211,-0.284 0.66,-0.832 0.837,-1.025c-1.113,-1.085 -1.265,-0.903 -2.285,-2.057c-0.246,-0.278 -0.993,-1.505 -1.063,-1.84c-0.175,-0.844 1.071,-1.647 1.498,-2.084c0.917,-0.94 1.754,-1.951 2.676,-2.888c0.15,-0.153 1.025,-0.885 1.134,-1.099c-0,-0 0.366,-1.679 0.609,-2.57c0.62,-2.265 0.607,-2.241 1.32,-4.48c0.255,-0.802 -0.224,-1.65 -0.138,-2.454c0.033,-0.31 0.602,-1.124 0.716,-1.401c0.147,-0.358 1.317,-5.039 1.58,-5.614c1.041,-2.278 2.253,-4.478 3.321,-6.743c0.518,-1.098 1.18,-2.406 1.745,-3.62c0.538,-1.155 3.337,-7.541 4.05,-8.821c0.624,-1.122 3.399,-7.038 4.161,-8.647c2.045,-4.315 1.59,-4.464 3.554,-8.799c1.498,-3.306 9.669,-27.091 9.917,-28.499c0.251,-1.431 1.248,-3.474 0.014,-4.163c-1.262,-0.704 -5.653,-0.081 -7.583,-0.063c-5.079,0.047 -9.963,-0.68 -14.999,-1.03c-1.978,-0.137 -4.207,-1.073 -5.945,-0.144c-1.176,0.629 -1.299,1.854 -1.639,2.929c-0.737,2.324 -1.26,4.962 -1.26,7.411l-0.009,-0.045c0,3.725 -0.942,7.636 -0.628,11.383c0.439,5.257 0.356,10.128 1.508,15.167c0.221,0.965 0.369,2.016 0.648,2.967c1.557,5.306 6.241,8.813 5.612,14.567c-0.345,3.149 -2.361,5.458 -5.74,6.118c-0.45,0.088 -0.225,-1.098 -0.501,-1.317c-0.276,-0.22 -0.822,0.187 -1.155,-0.002c-0.52,-0.295 -0.663,-1.036 -1.185,-1.326c-0.689,-0.383 -1.665,0.474 -2.373,0.127c-0.649,-0.317 -0.706,-1.351 -1.36,-1.66c-1.041,-0.491 -1.175,0.249 -2.094,-0.381c-0.494,-0.339 -0.261,-1.386 -0.835,-1.569c-1.461,-0.466 -1.741,0.369 -2.855,-0.762c-2.582,-2.623 0.363,-9.605 0.627,-10.485c1.079,-3.598 1.317,-3.285 1.404,-7.093c0.028,-1.221 -0.146,-2.439 -0.266,-3.654c-0.018,-0.185 -3.512,-15.924 -3.777,-18.057c-0.926,-7.456 -1.301,-23.256 -1.298,-23.39c0.014,-0.677 -0.037,-0.665 0.118,-1.314c0.437,-1.835 1.863,-1.969 3.727,-2.651c0.429,-0.157 12.965,-2.775 15.245,-3.084c8.082,-1.097 15.701,-1.154 23.618,-0.087c3.593,0.484 10.464,-1.039 10.979,-1.161c2.709,-0.64 7.045,-0.177 8.347,-0.04c0.492,0.052 1.709,0.375 2.159,0.174c0.793,-0.354 3.613,-2.143 6.127,-3.128c2.219,-0.869 4.198,-0.964 4.332,-1.005c0.77,-0.234 1.387,-0.806 2.055,-1.248c0.323,-0.213 0.841,-2.525 0.795,-3.309c-0.035,-0.613 0.008,-1.235 -0.111,-1.838c-0.037,-0.184 -0.057,-1.157 -0.135,-1.452c-0.165,-0.619 -1.05,-0.868 -1.352,-1.423c-0.163,-0.299 -1.673,-3.865 -1.989,-5.137c-1.221,-4.907 -3.282,-9.163 -1.444,-14.218c2.386,-6.563 9.308,-9.292 15.975,-10.315c2.197,-0.337 4.471,0.082 6.668,-0.261c3.684,-0.576 3.923,-1.262 7.347,-0.05c0.512,0.182 1.174,0.12 1.553,0.503c0.987,1.001 3.183,4.613 3.465,6.103c0.136,0.718 0.132,1.482 -0.05,2.192c-0.092,0.358 -0.814,0.488 -0.73,0.848c0.157,0.668 0.974,1.012 1.307,1.617c0.781,1.421 0.881,3.119 1.522,4.607c0.362,0.84 1.438,1.287 1.73,2.153c0.256,0.76 -2.191,2.91 -1.677,3.693c1.21,1.846 4.401,2.975 4.421,5.53c0.007,1.07 -2.245,1.625 -2.774,2.324c-0.827,1.093 0.464,2.636 -0.036,3.336c-0.669,0.937 -1.207,0.607 -1.207,1.739l-0.022,0.204c0.228,0.445 0.765,1.107 0.647,1.682c-0.11,0.527 -0.573,0.943 -0.676,1.472c-0.214,1.109 0.372,3.843 -0.935,4.771c-0.432,0.307 -1.87,0.159 -2.306,0.174c-2.306,0.079 -5.734,-0.022 -7.163,0.384c-0.809,0.229 -1.425,1.859 -1.409,2.048c0.035,0.421 -0.138,1.356 -0.427,1.634c-0.651,0.627 -2.087,1.228 -2.836,1.687c-0.296,0.181 -0.296,0.181 2.29,-1.266c1.184,0.577 2.583,1.489 3.745,2.406c1.236,0.977 3.023,1.917 3.669,3.449c0.92,2.184 1.517,7.272 1.853,9.655c0.217,1.534 0.336,3.104 0.164,4.643c-0.221,1.993 -0.786,3.79 -1.494,7.316c-0.388,1.929 0.896,3.726 1.191,5.536c0.29,1.786 0.575,4.762 0.575,4.762" style="fill:url(#_Linear2);"/><path d="M340.815,127.093c-0.611,0.412 -1.173,0.941 -1.88,1.156c-0.136,0.041 -2.131,0.141 -4.368,1.018c-2.522,0.988 -5.353,2.781 -6.148,3.137c-0.124,0.054 -0.333,0.026 -0.56,0c-0.496,-0.054 -1.053,-0.183 -1.349,-0.214c-1.327,-0.14 -5.748,-0.602 -8.511,0.05c-0.506,0.12 -7.266,1.629 -10.801,1.152c-7.961,-1.073 -15.622,-1.016 -23.749,0.088c-2.295,0.311 -14.915,2.951 -15.346,3.109c-0.755,0.275 -1.438,0.464 -2.015,0.708c-0.994,0.421 -1.706,0.995 -2.012,2.274c-0.166,0.698 -0.115,0.684 -0.13,1.412c-0.003,0.134 0.373,15.976 1.302,23.454c0.264,2.131 3.757,17.861 3.776,18.046c0.118,1.197 0.291,2.396 0.263,3.598c-0.085,3.744 -0.324,3.435 -1.385,6.973c-0.16,0.535 -1.294,3.296 -1.614,5.992c-0.227,1.925 -0.018,3.81 1.102,4.948c0.705,0.716 1.158,0.784 1.654,0.773c0.352,-0.008 0.743,-0.1 1.397,0.109c0.018,0.006 0.017,0.026 0.026,0.042c0.017,0.034 0.031,0.073 0.044,0.113c0.043,0.134 0.071,0.285 0.106,0.431c0.092,0.38 0.246,0.724 0.533,0.921c0.506,0.347 0.844,0.375 1.153,0.347c0.269,-0.023 0.509,-0.163 1.008,0.073c0.116,0.054 0.192,0.156 0.264,0.265c0.115,0.175 0.208,0.376 0.312,0.564c0.195,0.351 0.431,0.659 0.777,0.828c0.387,0.189 0.831,0.15 1.285,0.027c0.236,-0.064 0.475,-0.148 0.704,-0.188c0.129,-0.022 0.253,-0.039 0.362,0.021c0.249,0.139 0.368,0.423 0.529,0.665c0.178,0.266 0.381,0.506 0.652,0.66c0.232,0.131 0.52,0.135 0.816,0.071c0.065,-0.014 0.156,-0.033 0.231,-0.048c0.025,0.214 0.078,0.635 0.139,0.826c0.067,0.213 0.186,0.359 0.323,0.442c0.132,0.08 0.288,0.119 0.482,0.082c3.604,-0.704 5.755,-3.168 6.122,-6.527c0.326,-2.982 -0.71,-5.385 -2.043,-7.728c-1.27,-2.228 -2.817,-4.399 -3.585,-7.016c-0.276,-0.943 -0.422,-1.984 -0.64,-2.94c-1.147,-5.018 -1.062,-9.869 -1.5,-15.104c-0.305,-3.649 0.588,-7.452 0.629,-11.086c0.015,-0.062 0.02,-0.137 0.01,-0.23c0.003,-2.399 0.518,-4.982 1.239,-7.257c0.166,-0.524 0.277,-1.085 0.492,-1.591c0.179,-0.425 0.439,-0.809 0.92,-1.066c0.78,-0.417 1.672,-0.397 2.589,-0.275c1.031,0.136 2.093,0.405 3.091,0.475c5.05,0.35 9.947,1.078 15.038,1.031c1.16,-0.01 3.205,-0.239 4.929,-0.269c1.04,-0.017 1.955,0.015 2.412,0.27c0.331,0.185 0.38,0.532 0.36,0.923c-0.044,0.858 -0.461,1.915 -0.608,2.756c-0.247,1.404 -8.391,25.096 -9.884,28.39c-1.961,4.331 -1.506,4.48 -3.549,8.791c-0.761,1.604 -3.526,7.502 -4.148,8.62c-0.715,1.284 -3.525,7.692 -4.064,8.851c-0.566,1.213 -1.227,2.521 -1.745,3.618c-1.069,2.267 -2.281,4.468 -3.324,6.748c-0.264,0.577 -1.438,5.271 -1.587,5.631c-0.076,0.187 -0.372,0.627 -0.552,0.978c-0.112,0.218 -0.182,0.417 -0.195,0.548c-0.048,0.445 0.052,0.902 0.137,1.359c0.063,0.338 0.124,0.676 0.019,1.004c-0.714,2.249 -0.702,2.225 -1.324,4.498c-0.211,0.771 -0.512,2.126 -0.594,2.497c-0.036,0.041 -0.103,0.114 -0.157,0.167c-0.306,0.301 -0.77,0.695 -0.876,0.803c-0.921,0.936 -1.759,1.949 -2.677,2.89c-0.264,0.269 -0.828,0.677 -1.201,1.146c-0.333,0.419 -0.516,0.886 -0.419,1.352c0.078,0.371 0.896,1.743 1.169,2.052c0.927,1.048 1.144,1.008 1.995,1.786c-0.201,0.241 -0.435,0.533 -0.572,0.717c-0.703,0.945 -3.774,5.698 -5.758,9.76c-1.019,2.084 -5.943,11.516 -6.718,13.151c-0.353,0.746 -4.323,7.549 -6.011,9.222c-2.459,2.437 -5.628,4.714 -7.49,6.117c-2.318,1.747 -3.926,2.33 -7.844,5.514c-5.631,4.579 -11.271,14.043 -15.738,19.548c-2.674,3.295 -8.633,11.904 -9.196,12.659c-1.048,1.406 -4.307,5.334 -6.07,6.891c-1.234,1.091 -3.758,2.204 -4.362,2.377c-0.99,0.284 -2.028,0.383 -3.026,0.636c-0.115,0.029 -2.669,0.397 -4.401,0.719c-0.811,0.151 -1.454,0.304 -1.654,0.403c-1.881,0.931 -3.14,3.414 -2.684,5.185c0.907,3.524 2.112,6.792 3.406,10.181c0.971,2.545 4.463,11.671 4.706,12.609c0.185,0.718 4.631,11.367 5.381,12.403c0.556,0.767 0.994,1.61 1.534,2.387c1.289,1.859 3.126,3.575 4.466,3.996c0.692,0.217 1.543,0.096 2.295,-0.236c0.743,-0.328 1.382,-0.857 1.685,-1.404c0.34,-0.612 0.593,-2.163 0.556,-2.771c-0.237,-3.88 -1.476,-7.453 -2.362,-11.244c-0.209,-0.894 -0.15,-1.96 0.018,-3.092c0.265,-1.788 0.807,-3.735 1.118,-5.466c0.558,-3.104 1.515,-7.229 2.222,-9.915c0.539,-2.049 0.64,-4.366 1.944,-6.058c3.423,-4.441 16.39,-18.864 18.519,-20.456c0.445,-0.332 7.305,-5.665 8.795,-7.206c1.53,-1.58 6.364,-6.439 10.389,-9.223c1.308,-0.905 3.485,-2.431 3.841,-2.8c1.031,-1.068 2.651,-2.242 3.977,-2.926c1.262,-0.651 2.693,-0.995 3.886,-1.76c1.256,-0.806 2.728,-2.124 3.588,-3.049c0.682,-0.734 1.116,-1.658 1.599,-2.529c1.733,-3.124 2.953,-5.123 4.389,-6.926c1.18,-1.482 2.732,-2.646 4.199,-3.861c2.613,-2.164 9.236,-6.916 11.4,-9.047c2.307,-2.272 7.97,-8.71 8.619,-9.539c0.317,-0.405 2.412,-3.318 3.221,-3.966c0.038,-0.03 0.093,-0.01 0.15,-0.005c0.163,0.013 0.338,0.061 0.499,0.104c0.217,0.056 0.418,0.101 0.565,0.105c0.138,0.003 0.253,-0.023 0.345,-0.065c0.578,-0.266 1.156,-1.007 1.612,-1.589c0.124,-0.159 0.294,-0.342 0.383,-0.436c0.211,0.057 0.638,0.175 1.125,0.319c3.232,0.952 11.387,3.449 15.203,4.141c3.29,0.596 5.292,0.575 7.556,1.003c2.014,0.381 3.76,0.722 5.949,1.543c2.581,0.968 4.961,1.568 7.679,2.476c0.468,0.156 1.061,0.259 1.584,0.439c0.386,0.132 0.743,0.291 0.882,0.631c0.132,0.321 0.124,0.857 0.068,1.428c-0.09,0.932 -0.335,1.955 -0.545,2.416c-0.242,0.535 -2.494,3.097 -3.646,4.713c-1.335,1.875 -3.095,4.406 -4.3,6.432c-1.1,1.848 -2.031,3.79 -2.938,5.736c-1.315,2.82 -3.493,7.513 -4.968,11.211c-0.566,1.421 -5.977,15.692 -7.17,18.533c-0.696,1.656 -2.621,4.951 -4.327,7.049c-0.592,0.728 -1.144,1.313 -1.607,1.6c-0.073,-0.133 -0.18,-0.313 -0.258,-0.402c-0.149,-0.167 -0.331,-0.26 -0.541,-0.269c-0.205,-0.009 -0.505,0.07 -0.86,0.467c-1.071,1.199 -1.85,2.839 -2.667,4.295c-0.804,1.434 -1.711,3.155 -2.22,4.402c-0.426,1.043 -1.004,1.871 -0.855,3.263c0.274,2.554 1.495,3.813 3.23,4.902c1.078,0.675 2.365,1.282 3.738,2.133c1.969,1.221 5.393,3.573 5.393,3.573c0.019,0.014 0.039,0.025 0.06,0.036c2.606,1.279 4.741,4.029 7.083,5.622c5.091,3.463 12.39,5.002 18.443,5.573c1.548,0.146 4.961,0.224 7.206,-0.65c0.998,-0.388 1.771,-0.967 2.137,-1.762c0.252,-0.547 0.321,-1.2 0.118,-1.983c-0.393,-1.516 -1.482,-2.424 -2.756,-3.109c-1.148,-0.617 -2.448,-1.044 -3.405,-1.659c-2.915,-1.87 -6.027,-4.479 -8.313,-7.051c-0.919,-1.033 -5.066,-6.023 -6.406,-8.522c-1.039,-1.935 -1.485,-5.173 -1.604,-6.364c-0.208,-2.062 1.065,-5.627 1.475,-7.267c0.221,-0.885 0.635,-1.728 0.999,-2.551c1.419,-3.216 5.223,-9.574 8.375,-14.025c3.883,-5.484 13.214,-16.727 14.888,-18.813c1.587,-1.978 7.551,-8.569 9.339,-11.487c0.277,-0.452 2.525,-3.512 3.181,-4.371c0.756,-0.989 2.202,-3.395 2.365,-5.037c0.164,-1.651 -0.623,-3.346 -1.384,-4.853c-0.867,-1.72 -2.205,-4.025 -3.841,-5.608c-2.611,-2.526 -11.184,-9.053 -11.911,-9.667c-3.867,-3.267 -17.654,-12.396 -23.447,-15.146c-2.956,-1.404 -6.073,-2.46 -9.095,-3.722c-0.711,-0.297 -2.017,-1.002 -2.579,-1.309c0.05,-0.266 0.166,-0.567 0.302,-0.876c0.314,-0.708 0.759,-1.439 1.012,-1.897c0.789,-1.426 5.976,-9.399 6.533,-10.06c0.277,-0.33 16.824,-24.912 20.712,-30.688c0.099,1.198 0.287,2.448 0.417,3.536c0.232,1.947 1.125,9.597 1.751,12.586c0.395,1.89 1.48,4.289 2.033,5.436c0.309,0.642 0.823,1.213 1.424,1.612c0.888,0.588 2.636,1.852 4.019,2.013c1.227,0.142 2.006,-0.323 2.691,-1.008c0.394,-0.393 0.753,-0.865 1.169,-1.314c0.257,-0.275 0.597,-0.469 0.924,-0.676c0.413,-0.262 0.809,-0.54 1.086,-0.928c0.749,-1.047 1.734,-3.096 2.493,-4.696c0.776,-1.637 1.468,-3.314 2.113,-5.005c0.168,-0.44 1.154,-4.375 2.363,-8.335c0.994,-3.257 2.197,-6.53 2.721,-7.861c0.194,-0.494 0.611,-1.444 0.775,-2.167c0.024,-0.055 0.042,-0.125 0.051,-0.213c0.028,-0.096 0.092,-0.316 0.092,-0.383c0,0.008 -0.002,0.028 -0.002,0.028c0,-0 0.264,-0.579 0.336,-0.724c0.493,-0.989 4.836,-6.096 5.232,-6.606c0.586,-0.754 0.785,-2.212 0.962,-3.097c0.057,-0.29 -0.082,-0.683 -0.395,-1.069c-0.406,-0.497 -1.093,-1.032 -1.41,-1.289c0.02,-0.207 0.048,-0.576 0.03,-0.88c-0.021,-0.38 -0.113,-0.758 -0.307,-1.034c-0.259,-0.367 -0.731,-0.556 -1.179,-0.665c-0.083,-0.021 -0.183,-0.046 -0.272,-0.069c0.073,-0.192 0.176,-0.471 0.247,-0.68c0.124,-0.365 0.169,-0.72 0.098,-0.957c-0.082,-0.275 -0.27,-0.51 -0.528,-0.712c-0.275,-0.216 -0.64,-0.395 -0.95,-0.594c-0.182,-0.116 -0.575,-0.229 -0.96,-0.333c-0.127,-0.034 -0.285,-0.087 -0.403,-0.128c0.015,-0.057 0.029,-0.119 0.039,-0.166c0.04,-0.199 0.034,-0.392 -0.031,-0.55c-0.14,-0.345 -0.513,-0.768 -0.914,-0.968c-0.51,-0.255 -1.558,-0.623 -2.334,-0.759c-0.459,-0.08 -1.319,-0.06 -1.784,-0.042c0.046,-0.307 0.118,-0.656 0.133,-0.732c0.136,-0.686 0.363,-1.494 0.35,-2.202c-0.016,-0.872 -0.35,-1.612 -1.4,-1.963c-0.104,-0.035 -0.371,-0.101 -0.582,-0.119c-0.149,-0.013 -0.28,0.001 -0.365,0.028c-1.034,0.321 -1.595,1.027 -1.97,1.886c-0.323,0.741 -0.498,1.604 -0.789,2.367c-0.149,0.389 -0.725,2.3 -1.051,2.813c-0.266,0.417 -1.12,2.206 -1.166,2.571c-0.078,0.607 -0.193,1.273 -0.21,1.914c-0.034,1.3 -0.147,4.333 0.002,5.91c0.052,0.539 0.259,0.988 0.482,1.446c0.262,0.54 0.549,1.099 0.41,1.958c-0.23,1.418 -0.607,2.769 -1.014,4.101c-0.097,-0.84 -0.214,-1.761 -0.332,-2.486c-0.151,-0.929 -0.552,-1.856 -0.869,-2.796c-0.284,-0.841 -0.503,-1.693 -0.326,-2.577c0.713,-3.545 1.279,-5.351 1.502,-7.355c0.174,-1.578 0.055,-3.186 -0.166,-4.758c-0.341,-2.411 -0.954,-7.558 -1.886,-9.768c-0.352,-0.836 -1.007,-1.517 -1.751,-2.116c-0.683,-0.55 -1.44,-1.029 -2.059,-1.518c-0.98,-0.775 -2.125,-1.544 -3.176,-2.121l0.013,-0.011c0.157,-0.153 0.309,-0.44 0.408,-0.778c0.12,-0.406 0.178,-0.883 0.162,-1.18l0,-0.001c0.05,-0.213 0.254,-0.719 0.545,-1.132c0.152,-0.216 0.317,-0.419 0.518,-0.476c1.405,-0.399 4.778,-0.288 7.046,-0.365c0.311,-0.011 1.124,0.057 1.734,-0.006c0.357,-0.038 0.657,-0.13 0.837,-0.257c0.623,-0.443 0.919,-1.214 1.026,-2.083c0.132,-1.084 -0.029,-2.321 0.098,-2.98c0.041,-0.211 0.163,-0.397 0.277,-0.587c0.169,-0.281 0.332,-0.565 0.396,-0.879c0.066,-0.316 0.002,-0.654 -0.136,-0.982c-0.135,-0.318 -0.342,-0.628 -0.488,-0.883c-0,-0.001 0.007,-0.064 0.007,-0.064c0.002,-0.016 0.002,-0.033 0.002,-0.049c0,-0.228 0.017,-0.37 0.074,-0.471c0.052,-0.09 0.136,-0.137 0.226,-0.202c0.23,-0.166 0.513,-0.367 0.821,-0.799c0.132,-0.185 0.197,-0.402 0.205,-0.649c0.007,-0.263 -0.057,-0.569 -0.143,-0.896c-0.086,-0.324 -0.193,-0.675 -0.219,-1.021c-0.019,-0.265 0.011,-0.527 0.186,-0.76c0.098,-0.129 0.28,-0.243 0.487,-0.366c0.412,-0.243 0.924,-0.49 1.349,-0.769c0.616,-0.405 1.036,-0.902 1.031,-1.469c-0.01,-1.416 -0.869,-2.453 -1.923,-3.375c-0.915,-0.801 -1.982,-1.508 -2.567,-2.394c-0,-0.013 0.001,-0.064 0.008,-0.096c0.019,-0.082 0.054,-0.172 0.098,-0.266c0.144,-0.303 0.38,-0.645 0.621,-0.987c0.385,-0.546 0.781,-1.095 0.941,-1.512c0.11,-0.288 0.121,-0.54 0.055,-0.736c-0.17,-0.506 -0.555,-0.9 -0.964,-1.279c-0.302,-0.28 -0.624,-0.547 -0.78,-0.909c-0.646,-1.501 -0.752,-3.212 -1.541,-4.647c-0.19,-0.346 -0.509,-0.623 -0.813,-0.903c-0.162,-0.15 -0.327,-0.296 -0.411,-0.482c0.054,-0.039 0.127,-0.092 0.178,-0.127c0.248,-0.168 0.449,-0.376 0.511,-0.619c0.199,-0.773 0.205,-1.606 0.057,-2.39c-0.293,-1.547 -2.566,-5.302 -3.591,-6.341c-0.213,-0.216 -0.484,-0.341 -0.786,-0.419c-0.307,-0.079 -0.655,-0.095 -0.949,-0.2c-3.535,-1.252 -3.782,-0.566 -7.586,0.028c-2.196,0.343 -4.47,-0.077 -6.667,0.261c-6.836,1.049 -13.905,3.891 -16.352,10.62c-1.872,5.148 0.187,9.486 1.431,14.484c0.323,1.3 1.864,4.941 2.031,5.247c0.182,0.333 0.524,0.588 0.86,0.838c0.191,0.143 0.395,0.27 0.451,0.482c0.078,0.289 0.093,1.243 0.129,1.424c0.115,0.582 0.069,1.184 0.103,1.776c0.03,0.515 -0.207,1.729 -0.451,2.481c-0.058,0.179 -0.155,0.389 -0.183,0.447Zm30.581,-28.993c0.159,-0.637 0.159,-1.322 0.037,-1.966c-0.271,-1.432 -2.389,-4.901 -3.339,-5.863c-0.122,-0.124 -0.299,-0.158 -0.478,-0.194c-0.299,-0.059 -0.616,-0.096 -0.894,-0.194c-3.312,-1.173 -3.543,-0.485 -7.108,0.072c-2.196,0.343 -4.471,-0.076 -6.669,0.261c-6.498,0.997 -13.273,3.614 -15.599,10.01c-1.803,4.961 0.26,9.135 1.459,13.951c0.31,1.246 1.787,4.736 1.946,5.029c0.155,0.283 0.504,0.455 0.776,0.675c0.293,0.237 0.527,0.508 0.617,0.85c0.081,0.301 0.105,1.293 0.142,1.481c0.123,0.623 0.083,1.267 0.12,1.9c0.033,0.583 -0.219,1.963 -0.495,2.816c-0.093,0.285 -0.191,0.516 -0.279,0.657c-0.077,0.122 -0.161,0.202 -0.231,0.249c-0.706,0.466 -1.366,1.059 -2.182,1.306c-0.133,0.041 -2.096,0.132 -4.295,0.993c-2.506,0.982 -5.316,2.766 -6.107,3.12c-0.188,0.084 -0.472,0.119 -0.797,0.102c-0.552,-0.03 -1.264,-0.2 -1.613,-0.237c-1.276,-0.134 -5.526,-0.597 -8.182,0.03c-0.524,0.123 -7.507,1.661 -11.158,1.169c-7.873,-1.061 -15.449,-1.003 -23.486,0.087c-2.264,0.307 -14.717,2.903 -15.142,3.059c-0.738,0.269 -1.406,0.452 -1.97,0.69c-0.717,0.304 -1.24,0.707 -1.46,1.629c-0.144,0.603 -0.093,0.591 -0.106,1.219c-0.002,0.133 0.372,15.888 1.295,23.324c0.265,2.134 3.76,17.883 3.779,18.068c0.121,1.234 0.296,2.47 0.268,3.709c-0.089,3.873 -0.326,3.555 -1.424,7.214c-0.156,0.521 -1.27,3.21 -1.581,5.837c-0.193,1.625 -0.105,3.233 0.841,4.194c0.257,0.261 0.447,0.397 0.631,0.453c0.179,0.056 0.343,0.034 0.533,0.022c0.381,-0.023 0.83,-0.046 1.494,0.166c0.383,0.123 0.597,0.44 0.713,0.855c0.051,0.182 0.084,0.386 0.141,0.568c0.026,0.081 0.043,0.164 0.107,0.208c0.391,0.268 0.584,0.168 0.833,0.135c0.303,-0.039 0.656,-0.046 1.195,0.208c0.35,0.165 0.59,0.471 0.786,0.824c0.105,0.188 0.198,0.39 0.313,0.567c0.073,0.111 0.149,0.215 0.267,0.272c0.118,0.058 0.251,0.038 0.388,0.012c0.235,-0.044 0.478,-0.131 0.716,-0.193c0.462,-0.122 0.907,-0.148 1.29,0.065c0.275,0.153 0.479,0.391 0.658,0.658c0.158,0.236 0.275,0.512 0.51,0.658c0.022,-0.002 0.076,-0.006 0.108,-0.013c0.099,-0.018 0.201,-0.047 0.298,-0.067c0.325,-0.068 0.617,-0.036 0.832,0.136c0.089,0.07 0.167,0.171 0.222,0.304c0.062,0.151 0.096,0.369 0.119,0.596c0.007,0.077 0.022,0.177 0.035,0.263c2.99,-0.684 4.775,-2.799 5.087,-5.652c0.303,-2.772 -0.689,-4.998 -1.929,-7.175c-1.304,-2.29 -2.878,-4.525 -3.667,-7.214c-0.282,-0.959 -0.433,-2.02 -0.656,-2.994c-1.156,-5.059 -1.076,-9.951 -1.518,-15.23c-0.314,-3.76 0.627,-7.684 0.627,-11.421c0,-0.032 0.004,-0.062 0.01,-0.092c0.018,-2.456 0.544,-5.088 1.28,-7.412c0.175,-0.551 0.296,-1.14 0.521,-1.672c0.26,-0.614 0.651,-1.156 1.347,-1.528c0.958,-0.513 2.05,-0.53 3.176,-0.382c1.012,0.134 2.053,0.401 3.032,0.469c5.024,0.349 9.895,1.076 14.961,1.029c1.355,-0.012 3.921,-0.321 5.772,-0.264c0.89,0.027 1.627,0.151 2.052,0.389c0.658,0.367 0.881,1.003 0.842,1.78c-0.046,0.891 -0.468,1.991 -0.621,2.867c-0.249,1.413 -8.448,25.29 -9.951,28.609c-1.966,4.339 -1.511,4.488 -3.557,8.805c-0.765,1.615 -3.549,7.55 -4.175,8.674c-0.71,1.276 -3.499,7.641 -4.035,8.792c-0.565,1.215 -1.228,2.523 -1.746,3.622c-1.068,2.264 -2.279,4.462 -3.319,6.738c-0.263,0.574 -1.426,5.241 -1.573,5.598c-0.072,0.176 -0.314,0.556 -0.506,0.902c-0.084,0.152 -0.169,0.287 -0.178,0.373c-0.039,0.359 0.058,0.727 0.127,1.096c0.091,0.487 0.142,0.975 -0.008,1.448c-0.709,2.231 -0.697,2.206 -1.314,4.462c-0.242,0.883 -0.603,2.547 -0.603,2.547c-0.009,0.038 -0.022,0.075 -0.04,0.11c-0.045,0.089 -0.175,0.25 -0.354,0.425c-0.302,0.296 -0.76,0.684 -0.864,0.79c-0.921,0.936 -1.757,1.948 -2.674,2.887c-0.212,0.218 -0.63,0.525 -0.971,0.885c-0.138,0.144 -0.263,0.298 -0.342,0.458c-0.052,0.107 -0.086,0.215 -0.062,0.326c0.061,0.297 0.737,1.381 0.955,1.628c1.009,1.14 1.161,0.959 2.262,2.033c0.179,0.175 0.187,0.457 0.018,0.641c-0.17,0.186 -0.604,0.714 -0.807,0.987c-0.693,0.931 -3.715,5.613 -5.669,9.613c-1.017,2.082 -5.939,11.508 -6.713,13.141c-0.363,0.768 -4.46,7.764 -6.197,9.486c-2.492,2.469 -5.701,4.779 -7.587,6.2c-2.31,1.741 -3.914,2.32 -7.816,5.494c-5.588,4.544 -11.169,13.946 -15.601,19.41c-2.667,3.286 -8.61,11.875 -9.173,12.629c-1.07,1.434 -4.401,5.444 -6.201,7.033c-1.34,1.185 -4.079,2.392 -4.735,2.581c-0.999,0.287 -2.047,0.389 -3.056,0.644c-0.116,0.029 -2.705,0.405 -4.461,0.732c-0.684,0.128 -1.232,0.236 -1.401,0.32c-0.913,0.451 -1.646,1.356 -2.011,2.315c-0.235,0.616 -0.32,1.255 -0.177,1.809c0.898,3.491 2.092,6.726 3.374,10.082c0.979,2.564 4.493,11.761 4.737,12.706c0.182,0.7 4.503,11.084 5.235,12.094c0.56,0.771 1.002,1.619 1.545,2.402c1.157,1.668 2.764,3.252 3.966,3.63c0.486,0.153 1.079,0.036 1.608,-0.198c0.538,-0.237 1.017,-0.601 1.237,-0.998c0.278,-0.501 0.473,-1.773 0.442,-2.271c-0.233,-3.828 -1.465,-7.351 -2.339,-11.091c-0.232,-0.993 -0.183,-2.176 0.002,-3.434c0.267,-1.797 0.811,-3.753 1.124,-5.494c0.562,-3.126 1.526,-7.28 2.237,-9.985c0.57,-2.166 0.729,-4.6 2.106,-6.387c3.456,-4.482 16.554,-19.029 18.703,-20.635c0.439,-0.329 7.211,-5.586 8.681,-7.106c1.55,-1.602 6.452,-6.523 10.532,-9.345c1.256,-0.869 3.355,-2.324 3.697,-2.678c1.096,-1.136 2.817,-2.385 4.226,-3.111c1.236,-0.638 2.64,-0.967 3.808,-1.715c1.192,-0.765 2.588,-2.018 3.405,-2.896c0.63,-0.679 1.019,-1.541 1.466,-2.347c1.766,-3.182 3.012,-5.217 4.475,-7.054c1.22,-1.532 2.819,-2.744 4.334,-3.999c2.599,-2.153 9.189,-6.874 11.34,-8.993c2.286,-2.251 7.897,-8.627 8.539,-9.448c0.33,-0.422 2.531,-3.447 3.374,-4.121c0.271,-0.217 0.666,-0.258 1.079,-0.181c0.247,0.044 0.636,0.139 0.741,0.166c0.171,-0.095 0.336,-0.252 0.5,-0.427c0.335,-0.36 0.645,-0.799 0.905,-1.11c0.168,-0.203 0.326,-0.359 0.457,-0.446c0.113,-0.075 0.221,-0.114 0.319,-0.128c0.035,-0.006 0.248,0.01 0.595,0.106c2.077,0.575 11.801,3.624 16.069,4.397c3.294,0.597 5.297,0.576 7.563,1.005c2.07,0.391 3.862,0.744 6.111,1.588c2.57,0.963 4.94,1.56 7.645,2.464c0.576,0.192 1.335,0.309 1.935,0.574c0.509,0.225 0.913,0.551 1.11,1.033c0.172,0.419 0.205,1.116 0.132,1.862c-0.101,1.045 -0.387,2.189 -0.622,2.705c-0.251,0.552 -2.55,3.204 -3.735,4.869c-1.322,1.856 -3.066,4.362 -4.259,6.368c-1.084,1.822 -2,3.736 -2.895,5.653c-1.309,2.808 -3.477,7.481 -4.946,11.164c-0.567,1.422 -5.983,15.705 -7.178,18.548c-0.717,1.709 -2.701,5.11 -4.461,7.275c-0.804,0.988 -1.578,1.72 -2.168,1.979c-0.326,0.143 -0.576,0.063 -0.789,-0.148c-0.082,-0.082 -0.159,-0.198 -0.228,-0.328c-0.018,-0.032 -0.042,-0.076 -0.066,-0.119c-0.016,0.015 -0.031,0.03 -0.045,0.047c-1.028,1.149 -1.764,2.73 -2.548,4.128c-0.786,1.401 -1.673,3.081 -2.171,4.299c-0.369,0.906 -0.921,1.612 -0.791,2.821c0.236,2.2 1.301,3.276 2.795,4.213c1.076,0.675 2.362,1.281 3.734,2.131c1.878,1.164 5.07,3.35 5.401,3.578c2.63,1.305 4.802,4.065 7.169,5.675c4.963,3.377 12.086,4.853 17.987,5.41c1.451,0.137 4.654,0.231 6.759,-0.588c0.742,-0.289 1.347,-0.686 1.619,-1.278c0.174,-0.377 0.203,-0.83 0.063,-1.371c-0.322,-1.242 -1.246,-1.959 -2.29,-2.52c-1.171,-0.629 -2.493,-1.07 -3.47,-1.696c-2.984,-1.916 -6.169,-4.587 -8.51,-7.221c-0.937,-1.053 -5.163,-6.15 -6.531,-8.7c-1.094,-2.041 -1.583,-5.45 -1.708,-6.706c-0.217,-2.148 1.071,-5.87 1.498,-7.579c0.233,-0.935 0.665,-1.829 1.049,-2.699c1.435,-3.253 5.279,-9.685 8.467,-14.187c3.892,-5.497 13.244,-16.766 14.922,-18.857c1.575,-1.963 7.497,-8.496 9.271,-11.391c0.282,-0.46 2.568,-3.576 3.235,-4.45c0.689,-0.9 2.031,-3.076 2.18,-4.569c0.148,-1.484 -0.606,-2.996 -1.29,-4.351c-0.827,-1.641 -2.095,-3.846 -3.657,-5.357c-2.6,-2.516 -11.14,-9.013 -11.863,-9.624c-3.833,-3.238 -17.497,-12.287 -23.239,-15.012c-2.942,-1.398 -6.045,-2.448 -9.053,-3.705c-0.954,-0.398 -2.944,-1.502 -2.944,-1.502c-0.15,-0.084 -0.241,-0.239 -0.241,-0.406c-0,-0.42 0.164,-0.958 0.407,-1.505c0.326,-0.734 0.785,-1.494 1.048,-1.969c0.8,-1.448 6.07,-9.539 6.635,-10.21c0.314,-0.372 21.463,-31.813 21.463,-31.813c0.116,-0.173 0.334,-0.25 0.537,-0.191c0.203,0.058 0.341,0.24 0.341,0.447c0,1.549 0.298,3.38 0.479,4.89c0.231,1.934 1.116,9.537 1.738,12.507c0.38,1.818 1.429,4.122 1.961,5.226c0.238,0.493 0.634,0.93 1.097,1.237c0.8,0.529 2.348,1.713 3.593,1.858c0.866,0.1 1.409,-0.249 1.893,-0.732c0.385,-0.386 0.736,-0.851 1.145,-1.29c0.312,-0.335 0.715,-0.582 1.112,-0.832c0.309,-0.195 0.615,-0.39 0.822,-0.679c0.725,-1.015 1.674,-3.004 2.409,-4.554c0.766,-1.616 1.449,-3.269 2.084,-4.938c0.167,-0.438 1.142,-4.345 2.343,-8.277c1.003,-3.285 2.217,-6.586 2.745,-7.929c0.198,-0.505 0.695,-1.542 0.771,-2.185l0.011,-0.184c0.006,-0.099 0.044,-0.189 0.103,-0.262c0.015,-0.064 0.037,-0.134 0.067,-0.208c0.096,-0.244 0.265,-0.556 0.333,-0.693c0.503,-1.011 4.925,-6.24 5.33,-6.762c0.506,-0.651 0.629,-1.919 0.781,-2.691c-0.007,-0.018 -0.035,-0.091 -0.061,-0.135c-0.081,-0.135 -0.205,-0.278 -0.343,-0.421c-0.491,-0.507 -1.164,-0.993 -1.284,-1.11c-0.045,-0.044 -0.15,-0.162 -0.147,-0.385c0.001,-0.119 0.051,-0.437 0.053,-0.79c0.001,-0.26 -0.009,-0.551 -0.146,-0.744c-0.079,-0.113 -0.218,-0.166 -0.356,-0.214c-0.225,-0.076 -0.463,-0.117 -0.647,-0.165c-0.341,-0.088 -0.557,-0.252 -0.638,-0.411c-0.04,-0.078 -0.069,-0.182 -0.06,-0.315c0.007,-0.104 0.047,-0.258 0.112,-0.436c0.09,-0.243 0.233,-0.559 0.311,-0.841c0.028,-0.1 0.063,-0.189 0.043,-0.256c-0.041,-0.139 -0.178,-0.23 -0.321,-0.327c-0.237,-0.161 -0.518,-0.303 -0.763,-0.46c-0.162,-0.104 -0.56,-0.175 -0.892,-0.269c-0.351,-0.1 -0.647,-0.233 -0.773,-0.356c-0.131,-0.129 -0.208,-0.333 -0.162,-0.597c0.019,-0.113 0.081,-0.366 0.094,-0.42c-0.079,-0.166 -0.257,-0.359 -0.446,-0.453c-0.452,-0.225 -1.381,-0.55 -2.068,-0.67c-0.474,-0.083 -1.19,-0.014 -1.652,-0.006c-0.317,0.005 -0.555,-0.036 -0.661,-0.087c-0.1,-0.048 -0.237,-0.153 -0.279,-0.378c-0.046,-0.243 0.141,-1.255 0.17,-1.401c0.124,-0.625 0.345,-1.361 0.333,-2.007c-0.009,-0.481 -0.174,-0.903 -0.754,-1.097c-0.063,-0.021 -0.326,-0.063 -0.383,-0.072c-0.711,0.234 -1.08,0.749 -1.342,1.349c-0.317,0.729 -0.486,1.578 -0.774,2.328c-0.157,0.413 -0.787,2.435 -1.134,2.979c-0.228,0.358 -0.99,1.88 -1.029,2.194c-0.074,0.578 -0.186,1.213 -0.202,1.824c-0.035,1.275 -0.149,4.252 -0.002,5.799c0.051,0.548 0.326,0.974 0.546,1.453c0.273,0.597 0.488,1.256 0.337,2.182c-0.363,2.243 -1.086,4.319 -1.724,6.415l-0.002,0.009c-0.003,0.007 -0.005,0.015 -0.007,0.022l-0.004,0.013c-0.164,0.541 -0.323,1.083 -0.468,1.63c-0.066,0.249 -0.327,0.399 -0.583,0.335c-0.256,-0.064 -0.409,-0.319 -0.344,-0.569c0.142,-0.535 0.297,-1.065 0.457,-1.594c-0.048,-0.502 -0.303,-3.051 -0.562,-4.645c-0.144,-0.881 -0.532,-1.758 -0.833,-2.651c-0.335,-0.993 -0.565,-2.003 -0.355,-3.048c0.705,-3.507 1.268,-5.294 1.488,-7.276c0.168,-1.502 0.049,-3.033 -0.162,-4.529c-0.332,-2.354 -0.913,-7.383 -1.823,-9.541c-0.293,-0.696 -0.855,-1.251 -1.474,-1.751c-0.681,-0.547 -1.435,-1.025 -2.052,-1.512c-1.06,-0.837 -2.319,-1.67 -3.423,-2.236c-0.316,0.19 -0.662,0.374 -0.993,0.548c-0.881,0.493 -1.188,0.663 -1.234,0.685c-0.225,0.105 -0.372,0.023 -0.395,0.014c-0.146,-0.059 -0.228,-0.158 -0.27,-0.275c-0.026,-0.071 -0.101,-0.282 0.114,-0.489c0.009,-0.009 0.093,-0.073 0.213,-0.146c0.218,-0.135 0.498,-0.28 0.799,-0.435c0.365,-0.202 0.857,-0.477 1.507,-0.841l0.026,-0.014c0.161,-0.109 0.304,-0.221 0.422,-0.334c0.072,-0.07 0.115,-0.215 0.161,-0.371c0.092,-0.312 0.142,-0.68 0.125,-0.893c-0.005,-0.055 0.003,-0.176 0.05,-0.339c0.064,-0.216 0.203,-0.572 0.4,-0.928c0.317,-0.576 0.796,-1.124 1.303,-1.268c1.452,-0.412 4.936,-0.321 7.28,-0.402c0.26,-0.008 0.879,0.041 1.427,0.016c0.254,-0.011 0.493,-0.015 0.613,-0.1c0.423,-0.301 0.567,-0.849 0.639,-1.439c0.136,-1.106 -0.022,-2.369 0.108,-3.041c0.062,-0.317 0.222,-0.604 0.392,-0.887c0.115,-0.191 0.24,-0.379 0.284,-0.592c0.04,-0.192 -0.054,-0.394 -0.153,-0.59c-0.148,-0.293 -0.339,-0.568 -0.453,-0.79c-0.041,-0.08 -0.057,-0.17 -0.048,-0.259l0.02,-0.182c0.005,-0.768 0.225,-1.031 0.527,-1.274c0.194,-0.158 0.468,-0.287 0.766,-0.704c0.062,-0.087 0.038,-0.202 0.019,-0.331c-0.036,-0.245 -0.121,-0.521 -0.195,-0.809c-0.191,-0.742 -0.284,-1.541 0.221,-2.206c0.29,-0.384 1.039,-0.752 1.73,-1.149c0.276,-0.158 0.54,-0.323 0.733,-0.511c0.12,-0.117 0.216,-0.237 0.216,-0.383c-0.009,-1.14 -0.756,-1.944 -1.605,-2.687c-0.984,-0.861 -2.114,-1.64 -2.74,-2.595c-0.146,-0.223 -0.187,-0.505 -0.105,-0.832c0.079,-0.316 0.286,-0.697 0.547,-1.092c0.336,-0.507 0.761,-1.048 1.014,-1.497c0.055,-0.098 0.101,-0.19 0.133,-0.275c0.014,-0.04 0.026,-0.102 0.03,-0.121c-0.125,-0.351 -0.42,-0.61 -0.707,-0.876c-0.4,-0.37 -0.797,-0.745 -1.004,-1.224c-0.634,-1.474 -0.728,-3.159 -1.502,-4.568c-0.179,-0.326 -0.526,-0.557 -0.796,-0.827c-0.264,-0.265 -0.473,-0.555 -0.556,-0.906c-0.064,-0.275 0.026,-0.507 0.232,-0.709c0.094,-0.092 0.222,-0.177 0.35,-0.263c0.051,-0.035 0.133,-0.102 0.157,-0.122Z" style="fill:url(#_Linear3);"/></g></g><g id="Kristina"><path id="_-" serif:id=" " d="M67.303,367.207c0,-2.628 2.342,-11.424 2.196,-14.108c-0.322,-5.891 -5.146,-13.67 0.891,-18.601c2.277,-1.859 5.521,-1.881 8.157,-1.024c0.899,0.293 1.377,1.771 2.312,1.616c1.52,-0.251 6.655,-4.867 7.65,-5.809c4.357,-4.131 8.89,-8.105 12.929,-12.531c5.433,-5.953 3.475,-7.312 9.387,-12.971c2.167,-2.075 4.751,-3.711 7.324,-5.285c2.576,-1.577 5.36,-2.808 8.079,-4.138c2.348,-1.149 9.157,-4.913 7.117,-3.3c1.532,-0.6 2.861,-3.463 3.491,-4.677c2.382,-4.59 4.691,-9.217 7.081,-13.804c3.762,-7.223 7.748,-13.532 13.583,-19.345l0.101,-0.144c0.286,-0.282 -0.239,-0.758 -0.392,-1.126c-0.725,-1.741 -1.89,-3.349 -2.24,-5.197c-0.451,-2.382 -0.508,-4.873 -0.118,-7.265c1.829,-11.192 11.94,-20.306 18.706,-28.827c0.684,-0.87 1.402,-1.783 1.702,-2.838c1.019,-3.586 0.773,-8.217 0.509,-11.839c-0.286,-3.923 -0.896,-7.822 -1.08,-11.751c-0.249,-5.297 0.431,-10.741 -0.797,-15.906c-0.952,-4.008 -2.233,-3.218 -6.482,-3.492c-7.179,-0.461 -7.059,0.438 -14.258,-0.412c-3.902,-0.461 -7.686,-1.699 -11.599,-2.069c-5.3,-0.5 -6.807,4.688 -9.02,8.79c-1.781,3.302 -7.678,17.722 -8.459,20.023c-2.413,7.1 -0.522,14.702 -5.488,21.216c-1.388,1.821 -2.501,1.671 -4.448,2.432c-2.315,0.906 -5.981,4.443 -8.376,4.497c-1.945,0.043 -1.618,-3.595 -1.971,-4.728c-1.303,-4.191 -1.23,-8.56 2.233,-11.97c1.898,-1.321 3.825,-2.663 5.386,-4.351c1.834,-1.982 2.04,-4.969 2.728,-7.553c2.953,-11.09 3.843,-20.6 8.546,-30.641c1.604,-3.425 2.335,-8.502 6.009,-9.654c11.135,-3.489 23.774,-4.949 35.437,-4.62c3.187,0.09 10.181,1.654 13.67,-0.111c2.226,-1.128 3.91,-3.102 5.56,-4.946c7.511,-8.394 -0.363,-16.785 2.728,-26.003c1.125,-3.354 3.668,-6.22 7.466,-6.857c1.83,-0.306 3.725,0.333 5.495,0.873c1.193,0.364 2.581,2.306 3.448,1.43c4.995,-5.044 7.704,-10.356 15.871,-10.513c6.879,-0.133 17.768,3.718 19.7,11.212c0.443,1.719 0.128,3.559 0.491,5.296c0.514,2.464 1.691,4.774 2.127,7.252c0.276,1.567 -2.361,2.491 -2.551,4.07c-0.081,0.664 2.812,8.628 0.73,9.356c-0.664,0.232 -0.996,0.099 -1.492,0.162c-0.515,0.066 -1.013,0.008 -1.596,0.236c-0.501,0.195 -0.055,1.046 -0.274,1.527c-0.4,0.881 -0.794,0.509 -1.235,1.371c-0.131,0.257 0.343,0.695 0.412,1.001c0.061,0.271 0.161,0.604 0,0.835c-0.297,0.423 -1.452,0.961 -1.784,1.707c-0.592,1.333 -1.898,3.336 -3.331,3.851c-1.433,0.514 -4.707,-0.742 -5.269,-0.766c-0.425,-0.018 -1.518,-0.15 -1.263,0.182c0.754,0.979 2.453,0.534 3.675,0.817c2.157,0.5 4.408,0.682 6.483,1.439c3.856,1.406 4.564,4.295 6.35,7.799c0.445,0.874 0.175,3.066 1.11,2.72c1.366,-0.506 1.089,-2.671 1.922,-3.842c1.743,-2.451 3.585,-4.868 5.762,-6.962c0.52,-0.499 0.587,1.333 1.084,1.853c1.819,1.905 4.425,2.384 4.665,5.492c0.062,0.807 -0.515,1.681 -0.182,2.422c1.53,3.405 3.456,2.96 2.428,6.486c-0.819,2.807 -4.387,3.983 -4.713,6.834c-1.006,8.801 3.407,16.611 3.54,25.276c0.035,2.284 -1.101,9.031 -2.774,10.637c-0.5,0.582 -1.021,1.188 -1.696,1.567c-0.924,0.519 -1.939,1.144 -3.003,1.074c-1.655,-0.108 -5.792,-2.582 -6.675,-3.942c-1.23,-1.891 -1.727,-4.151 -2.59,-6.226c-3.282,-7.884 -6.337,-15.087 -8.004,-23.443c-0.174,-0.874 0.434,1.737 0.496,2.625c0.078,1.12 -0.434,5.121 -0.674,5.838c-1.575,4.702 -2.353,4.108 -5.772,7.897c-2.115,2.345 -1.936,3.585 -3.539,6.661c-5.145,9.863 -8.883,19.923 -13.958,29.851c-1.25,2.444 -2.919,4.662 -4.336,7.018c-1.069,1.776 -4.472,3.794 -3.122,5.378c4.087,4.794 10.962,6.434 16.218,9.983c3.573,2.412 6.977,5.071 10.234,7.876c3.253,2.801 6.109,6.014 9.266,8.917c0.85,0.781 9.912,6.412 11.053,10.998c0.738,2.964 -1.004,5.501 -1.83,8.165c-1.743,5.621 -3.796,11.182 -4.913,16.951c-1.876,9.681 -6.4,31.192 -4.556,44.163c0.274,1.931 0.425,3.927 1.174,5.735c0.652,1.572 3.406,3.059 4.784,3.749c5.137,2.572 10.47,4.498 16.178,5.435c3.512,0.578 8.025,-0.538 9.674,2.54c1.886,3.518 -1.842,5.494 -4.049,6.583c-4.632,2.284 -11.198,1.889 -16.84,1.735c-7.48,-0.204 -20.117,1.774 -28.037,-2.962c-1.544,-0.923 -1.414,-5.46 -1.298,-6.344c0.859,-6.476 3.709,-12.651 4.151,-19.166c0.297,-4.386 -1.459,-9.988 -1.881,-14.512c-0.62,-6.647 -1.674,-13.297 -1.512,-19.97c0.103,-4.264 1.244,-8.458 2.302,-12.597c0.289,-1.13 3.971,-8.889 4.072,-10.584c0.102,-1.684 -2.584,-3.379 -3.714,-3.872c-3.294,-1.436 -6.647,-2.763 -10.078,-3.854c-11.532,-3.666 -24.521,-10.604 -25.894,-9.272c-3.406,3.3 -5.863,7.451 -9.272,10.747c-5.691,5.5 -12.786,9.491 -18.48,14.987c-2.396,2.313 -4.106,5.263 -6.613,7.461c-5.142,4.507 -6.285,2.468 -12.187,6.075c-4.472,2.733 -8.514,6.086 -12.802,9.087c-10.295,7.208 -22.655,14.363 -31.009,24.007c-2.835,3.273 -11.197,14.587 -13.205,18.95c-1.647,3.581 -1.478,7.023 -1.054,10.72c0.14,1.233 1.312,4.793 0.198,6.081c-1.499,1.735 -5.869,1.436 -7.335,0.112c-3.471,-3.133 -4.951,-8.563 -4.951,-12.956Z" style="fill:url(#_Linear4);"/><path d="M174.308,169.823c0.079,-0 0.063,-0.289 0.063,-0.334c0,-0.376 0.143,-0.732 0.143,-1.121c-0,-0.728 -0.183,-1.216 -0.442,-1.89c-0.192,-0.501 -0.301,-0.841 -0.748,-1.207c-0.496,-0.404 -0.993,-0.595 -1.595,-0.708c-0.275,-0.05 -0.592,0.029 -0.592,0.346l-0.014,-0.231c-1.334,2.314 -0.779,3.552 -2.281,6c-0.912,1.484 -1.666,3.155 -2.001,4.863c-0.034,0.176 -0.123,1.244 0.136,1.407c0.206,0.131 0.494,-0.032 0.73,-0.1c0.522,-0.149 1.04,-0.324 1.533,-0.548c0.557,-0.251 1.092,-0.549 1.607,-0.874c1.297,-0.819 0.793,-1.955 1.217,-3.192c0.308,-0.9 1.698,-1.827 2.561,-2.358" style="fill:url(#_Linear5);"/><path d="M200.132,139.847c-0.196,-0.057 0.135,-0.377 0.227,-0.555c0.143,-0.279 0.364,-0.522 0.475,-0.814c0.316,-0.834 0.36,-1.697 0.274,-2.575c-0.087,-0.894 -0.236,-1.779 -0.394,-2.663c-0.024,-0.135 -0.726,-1.892 0.048,-1.819c1.209,0.113 1.684,1.791 1.988,2.553c0.534,1.339 0.309,2.952 -0.5,4.16c-0.357,0.535 -0.835,0.907 -1.367,1.274c-0.238,0.165 -0.472,0.522 -0.751,0.439Z" style="fill:url(#_Linear6);"/></g></g></g></g><defs><linearGradient id="_Linear1" x1="0" y1="0" x2="1" y2="0" gradientUnits="userSpaceOnUse" gradientTransform="matrix(-450,-0.287632,0.287632,-450,453.522,235.13)"><stop offset="0" style="stop-color:#f8db40;stop-opacity:1"/><stop offset="1" style="stop-color:#ff6767;stop-opacity:1"/></linearGradient><linearGradient id="_Linear2" x1="0" y1="0" x2="1" y2="0" gradientUnits="userSpaceOnUse" gradientTransform="matrix(375.76,3.81784e-16,-3.47011e-16,324.817,40.2949,213.689)"><stop offset="0" style="stop-color:#f8db40;stop-opacity:1"/><stop offset="1" style="stop-color:#ff6767;stop-opacity:1"/></linearGradient><linearGradient id="_Linear3" x1="0" y1="0" x2="1" y2="0" gradientUnits="userSpaceOnUse" gradientTransform="matrix(375.76,3.81784e-16,-3.47011e-16,324.817,40.2949,213.689)"><stop offset="0" style="stop-color:#f8db40;stop-opacity:1"/><stop offset="1" style="stop-color:#ff6767;stop-opacity:1"/></linearGradient><linearGradient id="_Linear4" x1="0" y1="0" x2="1" y2="0" gradientUnits="userSpaceOnUse" gradientTransform="matrix(375.76,3.81784e-16,-3.47011e-16,324.817,39.6088,194.65)"><stop offset="0" style="stop-color:#f8db40;stop-opacity:1"/><stop offset="1" style="stop-color:#ff6767;stop-opacity:1"/></linearGradient><linearGradient id="_Linear5" x1="0" y1="0" x2="1" y2="0" gradientUnits="userSpaceOnUse" gradientTransform="matrix(375.76,3.81784e-16,-3.47011e-16,324.817,39.6088,194.65)"><stop offset="0" style="stop-color:#f8db40;stop-opacity:1"/><stop offset="1" style="stop-color:#ff6767;stop-opacity:1"/></linearGradient><linearGradient id="_Linear6" x1="0" y1="0" x2="1" y2="0" gradientUnits="userSpaceOnUse" gradientTransform="matrix(375.76,3.81784e-16,-3.47011e-16,324.817,39.6088,194.65)"><stop offset="0" style="stop-color:#f8db40;stop-opacity:1"/><stop offset="1" style="stop-color:#ff6767;stop-opacity:1"/></linearGradient></defs></svg>