<?xml version="1.0" encoding="UTF-8" standalone="no"?>
<!DOCTYPE svg PUBLIC "-//W3C//DTD SVG 1.1//EN" "http://www.w3.org/Graphics/SVG/1.1/DTD/svg11.dtd">
<svg width="100%" height="100%" viewBox="0 0 1314 886" version="1.1"
    xmlns="http://www.w3.org/2000/svg" xmlns:xlink="http://www.w3.org/1999/xlink"
    xml:space="preserve" xmlns:serif="http://www.serif.com/"
    style="fill-rule:evenodd;clip-rule:evenodd;stroke-linejoin:round;stroke-miterlimit:2;">
    <g transform="matrix(1,0,0,1,-616.668,-1208.33)">
        <g id="Ebene-1" serif:id="Ebene 1" transform="matrix(4.16667,0,0,4.16667,0,0)">
            <g transform="matrix(1,0,0,1,439.132,447.062)">
                <path d="M0,55.434C-14.883,55.434 -23.726,47.825 -24.262,37.016L-10.271,37.016C-10.271,40.375 -8.152,45.34 0.873,45.502C6.902,45.502 9.738,41.967 9.738,39.317C9.381,35.069 4.065,34.717 -1.611,33.827C-7.262,32.934 -12.045,31.885 -15.586,30.11C-20.021,27.807 -23.035,22.838 -23.035,17.184C-23.035,7.614 -14.703,0 -0.883,0C12.557,0 21.065,7.082 21.953,17.534L8.496,17.534C8.313,14.713 7.787,10.264 -0.185,10.264C-5.502,10.264 -9.025,11.344 -9.391,15.053C-9.391,20.553 1.766,20.19 10.44,22.485C18.76,24.616 24.078,29.752 24.078,37.016C24.078,50.295 13.275,55.434 0,55.434" style="fill:rgb(35,31,32);fill-rule:nonzero;"/>
            </g>
            <g transform="matrix(0.867226,-0.497914,-0.497914,-0.867226,189.458,430.595)">
                <path d="M1.991,18.451L55.699,18.451L55.879,-30.659L1.985,0.285L1.991,18.451Z" style="fill:rgb(35,31,32);fill-rule:nonzero;"/>
            </g>
            <g transform="matrix(-1,0,0,1,559.332,156.85)">
                <rect x="273.022" y="290.744" width="13.288" height="53.662" style="fill:rgb(35,31,32);"/>
            </g>
            <g transform="matrix(1,0,0,1,175.797,447.062)">
                <path d="M0,55.434C-15.218,55.434 -27.797,42.848 -27.797,27.622C-27.797,12.215 -15.218,0 0,0C5.848,0 11.339,1.594 15.944,4.788L15.944,0.532L29.044,0.532L29.044,54.194L15.944,54.194L15.944,50.643C11.514,53.664 6.028,55.434 0,55.434M-15.048,27.622C-15.048,35.95 -7.967,42.848 0.363,42.848C8.863,42.848 15.944,35.95 15.944,27.622C15.944,19.297 8.863,12.215 0.363,12.215C-7.967,12.215 -15.048,19.297 -15.048,27.622" style="fill:rgb(35,31,32);"/>
            </g>
            <g transform="matrix(-0.499386,-0.866379,-0.866379,0.499386,413.176,323.813)">
                <path d="M-62.221,103.407L67.567,103.407L67.622,49.608L-93.354,49.393L-62.221,103.407Z" style="fill:rgb(35,31,32);fill-rule:nonzero;"/>
            </g>
            <g transform="matrix(1,0,0,1,237.427,429.359)">
                <path d="M0,73.137C-15.405,73.137 -27.971,60.551 -27.971,45.325C-27.971,29.918 -15.405,17.703 0,17.703C5.843,17.703 11.166,19.297 15.756,22.491L15.756,0L29.03,0L29.03,71.897L15.756,71.897L15.756,68.346C11.166,71.367 5.843,73.137 0,73.137M-15.234,45.325C-15.234,53.653 -8.152,60.551 0.356,60.551C8.677,60.551 15.756,53.653 15.756,45.325C15.756,37 8.677,29.918 0.356,29.918C-8.152,29.918 -15.234,37 -15.234,45.325" style="fill:rgb(35,31,32);"/>
            </g>
            <g transform="matrix(1,0,0,1,236.361,415.912)">
                <path d="M0,-50.131L46.762,-76.863L98.989,13.447L49.949,13.447L49.949,26.732L36.661,26.732L36.661,13.447L0,-50.131Z" style="fill:rgb(35,31,32);fill-rule:nonzero;"/>
            </g>
            <g transform="matrix(1,0,0,1,380.692,447.062)">
                <path d="M0,55.434C-15.223,55.434 -27.809,42.848 -27.809,27.622C-27.809,12.215 -15.223,0 0,0C5.848,0 11.318,1.594 15.75,4.788L15.75,0.532L29.039,0.532L29.039,54.194L15.75,54.194L15.75,50.643C11.318,53.664 6.022,55.434 0,55.434M-14.879,27.622C-14.879,35.95 -7.795,42.848 0.527,42.848C8.854,42.848 15.75,35.95 15.75,27.622C15.75,19.297 8.854,12.215 0.527,12.215C-7.795,12.215 -14.879,19.297 -14.879,27.622" style="fill:rgb(35,31,32);"/>
            </g>
            <g transform="matrix(1,0,0,1,335.35,502.496)">
                <path d="M0,-73.137L13.107,-73.137L13.107,-1.24L0,-1.24L0,-4.791C-4.422,-1.77 -9.911,0 -15.934,0C-31.166,0 -43.741,-12.586 -43.741,-27.813C-43.741,-43.219 -31.166,-55.434 -15.934,-55.434C-9.911,-55.434 -4.596,-53.84 0,-50.647L0,-73.137ZM-30.803,-27.813C-30.803,-19.485 -23.735,-12.586 -15.566,-12.586C-7.075,-12.586 0,-19.485 0,-27.813C0,-36.137 -7.075,-43.219 -15.566,-43.219C-23.735,-43.219 -30.803,-36.137 -30.803,-27.813" style="fill:rgb(35,31,32);"/>
            </g>
        </g>
    </g>
</svg>