<?xml version="1.0" encoding="UTF-8" standalone="no"?>
<!DOCTYPE svg PUBLIC "-//W3C//DTD SVG 1.1//EN" "http://www.w3.org/Graphics/SVG/1.1/DTD/svg11.dtd">
<svg width="100%" height="100%" viewBox="0 0 5906 2953" version="1.1" xmlns="http://www.w3.org/2000/svg" xmlns:xlink="http://www.w3.org/1999/xlink" xml:space="preserve" xmlns:serif="http://www.serif.com/" style="fill-rule:evenodd;clip-rule:evenodd;stroke-miterlimit:3.864;">
    <g transform="matrix(4.16667,0,0,4.16667,970.047,893.83)">
        <path d="M0,-13.142L281.3,-13.142M310.543,25.148L-29.674,25.148M41.296,-45.403L239.502,-45.403M140.637,-72.29L140.637,58.399M-8.233,58.399C14.057,-16.918 72.691,-72.29 140.637,-72.29M29.07,58.196C45.785,-17.124 89.676,-72.29 140.637,-72.29M66.141,58.399C77.282,-16.918 106.667,-72.29 140.637,-72.29M103.302,58.399C108.876,-16.918 123.652,-72.29 140.637,-72.29M177.811,58.74C172.237,-16.581 157.615,-72.29 140.637,-72.29M252.249,58.807C235.533,-16.51 191.592,-72.29 140.637,-72.29M289.52,58.196C267.236,-17.124 208.576,-72.29 140.637,-72.29M214.946,58.399C203.805,-16.918 174.607,-72.29 140.637,-72.29M-44.475,56.712C-16.568,-18.503 55.777,-72.094 140.637,-72.094C225.49,-72.094 297.835,-18.503 325.749,56.712L326.494,59.135L-45.207,59.148L-44.475,56.712Z" style="fill:none;fill-rule:nonzero;stroke:rgb(136,139,140);stroke-width:5.01px;"/>
    </g>
    <g transform="matrix(4.16667,0,0,4.16667,970.047,1921.16)">
        <path d="M0,13.142L281.3,13.142M310.543,-25.148L-29.674,-25.148M41.296,45.403L239.502,45.403M140.637,72.29L140.637,-58.399M-8.233,-58.399C14.057,16.918 72.691,72.29 140.637,72.29M29.07,-58.197C45.785,17.124 89.676,72.29 140.637,72.29M66.141,-58.399C77.282,16.918 106.667,72.29 140.637,72.29M103.302,-58.399C108.876,16.918 123.652,72.29 140.637,72.29M177.811,-58.74C172.237,16.581 157.615,72.29 140.637,72.29M252.249,-58.807C235.533,16.51 191.592,72.29 140.637,72.29M289.52,-58.197C267.236,17.124 208.576,72.29 140.637,72.29M214.946,-58.399C203.805,16.918 174.607,72.29 140.637,72.29M-44.475,-56.712C-16.568,18.503 55.777,72.094 140.637,72.094C225.49,72.094 297.835,18.503 325.749,-56.712L326.494,-59.135L-45.207,-59.148L-44.475,-56.712Z" style="fill:none;fill-rule:nonzero;stroke:rgb(136,139,140);stroke-width:5.01px;"/>
    </g>
    <g transform="matrix(4.16667,0,0,4.16667,315.945,1595.52)">
        <path d="M0,-90.563L595.275,-90.563M0.045,-0.122L595.275,0" style="fill:none;fill-rule:nonzero;stroke:rgb(136,139,140);stroke-width:5.01px;"/>
    </g>
    <g transform="matrix(4.16667,0,0,4.16667,725.641,1292.48)">
        <path d="M0,56.85L0,17.059L-25.791,56.85L-37.744,56.85L-63.509,17.081L-63.509,56.85L-79.362,56.85L-79.362,0L-60.23,0L-31.771,42.28L-3.773,0.703L-3.304,0L15.841,0L15.841,56.85L0,56.85Z" style="fill:rgb(136,139,140);fill-rule:nonzero;"/>
    </g>
    <g transform="matrix(4.16667,0,0,4.16667,865.772,1292.47)">
        <path d="M0,56.844L0,0L15.853,0L15.853,56.844L0,56.844Z" style="fill:rgb(136,139,140);fill-rule:nonzero;"/>
    </g>
    <g transform="matrix(4.16667,0,0,4.16667,1004.14,1292.46)">
        <path d="M0,56.854L0,0L70.457,0L70.457,9.387L15.847,9.374L15.847,22.754L63.329,22.754L63.329,32.143L15.847,32.143L15.847,47.467L71.811,47.467L71.811,56.854L0,56.854Z" style="fill:rgb(136,139,140);fill-rule:nonzero;"/>
    </g>
    <g transform="matrix(4.16667,0,0,4.16667,1444.55,1292.48)">
        <path d="M0,56.85L0,9.373L-28.787,9.373L-28.787,0L44.635,0L44.635,9.373L15.847,9.373L15.847,56.85L0,56.85Z" style="fill:rgb(136,139,140);fill-rule:nonzero;"/>
    </g>
    <g transform="matrix(4.16667,0,0,4.16667,1658.06,1292.44)">
        <path d="M0,56.853L0,0L70.451,0L70.451,9.39L15.841,9.39L15.841,22.763L63.317,22.763L63.317,32.14L15.853,32.14L15.853,47.479L71.804,47.479L71.804,56.853L0,56.853Z" style="fill:rgb(136,139,140);fill-rule:nonzero;"/>
    </g>
    <g transform="matrix(4.16667,0,0,4.16667,2266.94,1292.45)">
        <path d="M0,56.849L-48.914,16.177L-48.914,56.849L-63.952,56.849L-63.952,0L-48.997,0L-0.206,40.732L-0.206,0L14.839,0L14.839,56.849L0,56.849Z" style="fill:rgb(136,139,140);fill-rule:nonzero;"/>
    </g>
    <g transform="matrix(4.16667,0,0,4.16667,2373.81,1370.87)">
        <path d="M0,19.212L-0.199,17.499L16.79,16.671L16.905,18.237C17.29,26.423 26.908,30.433 43.422,30.465C49.33,30.465 55.105,29.683 59.218,28.072C63.375,26.404 65.498,24.223 65.486,21.362C65.639,19.058 62.862,17.069 57.202,15.626C51.692,14.24 44.121,13.473 36.505,12.559C21.5,10.57 5.274,8.764 4.69,-3.278C5.294,-15.77 23.931,-19.991 40.605,-20.171C60.5,-20.116 77.502,-15.311 80.767,-2.21L81.198,-0.308L64.677,0.18L64.555,-1.334C64.343,-7.558 54.636,-11.311 41.407,-11.24C37.006,-11.24 31.758,-10.81 27.78,-9.643C23.681,-8.446 21.519,-6.682 21.614,-4.779C21.448,-2.695 24.2,-0.792 29.891,0.542C35.408,1.848 42.991,2.557 50.62,3.513C65.627,5.502 81.973,8.03 82.423,21.143C81.864,34.559 62.219,39.229 43.967,39.383C21.198,39.338 2.098,34.559 0,19.212" style="fill:rgb(136,139,140);fill-rule:nonzero;"/>
    </g>
    <g transform="matrix(4.16667,0,0,4.16667,3278.34,1457.12)">
        <path d="M0,-26.812L-11.025,-26.812C-11.819,-16.493 -14.2,-6.35 -17.023,4.94L-17.111,4.94L-18.434,-1.587L-24.872,-26.812L-37.926,-26.812L-43.306,-1.763L-44.453,5.028L-44.541,5.028L-46.129,-2.381L-51.862,-26.812L-63.945,-26.812L-52.479,17.376L-38.808,17.376L-32.899,-8.731L-32.281,-14.111L-32.193,-14.111L-31.223,-8.555L-24.608,17.376L-11.201,17.376C-5.821,2.382 -1.94,-12.083 0,-26.812M67.384,-26.812L56.359,-26.812C55.566,-16.493 53.184,-6.35 50.362,4.94L50.274,4.94L48.951,-1.587L42.512,-26.812L29.458,-26.812L24.078,-1.763L22.932,5.028L22.843,5.028L21.256,-2.381L15.523,-26.812L3.439,-26.812L14.905,17.376L28.576,17.376L34.486,-8.731L35.103,-14.111L35.191,-14.111L36.162,-8.555L42.777,17.376L56.183,17.376C61.563,2.382 65.444,-12.083 67.384,-26.812M134.769,-26.812L123.744,-26.812C122.95,-16.493 120.569,-6.35 117.746,4.94L117.658,4.94L116.335,-1.587L109.896,-26.812L96.843,-26.812L91.463,-1.763L90.316,5.028L90.228,5.028L88.64,-2.381L82.907,-26.812L70.824,-26.812L82.29,17.376L95.961,17.376L101.87,-8.731L102.488,-14.111L102.576,-14.111L103.546,-8.555L110.161,17.376L123.567,17.376C128.948,2.382 132.828,-12.083 134.769,-26.812M150.803,11.643C150.803,6.439 149.568,4.94 144.276,4.94C138.72,4.94 137.485,6.439 137.485,11.731C137.485,16.847 138.72,18.346 144.188,18.346C149.568,18.346 150.803,16.847 150.803,11.643M220.922,-7.849C220.922,-22.137 216.335,-27.782 207.692,-27.782C202.4,-27.782 197.813,-25.224 193.58,-21.432C191.904,-25.048 188.288,-27.782 182.819,-27.782C177.792,-27.782 173.294,-25.401 169.766,-22.137L168.972,-26.812L159.623,-26.812L159.623,17.376L171,17.376L171,-15.081C173.911,-17.286 176.822,-18.698 178.938,-18.698C182.643,-18.698 184.583,-16.14 184.583,-5.732L184.583,17.376L195.873,17.376L195.873,-8.114C195.873,-11.289 195.696,-13.317 195.432,-14.729C198.342,-17.022 201.518,-18.698 203.811,-18.698C207.603,-18.698 209.544,-16.316 209.544,-5.732C209.544,-0.617 209.279,8.468 209.279,17.376L220.657,17.376C220.657,7.674 220.922,-2.381 220.922,-7.849M242.151,-38.366C242.151,-42.953 240.916,-44.364 235.447,-44.364C230.067,-44.364 228.656,-42.864 228.656,-38.366C228.656,-33.868 229.979,-32.457 235.447,-32.457C240.828,-32.457 242.151,-34.044 242.151,-38.366M241.092,-26.812L229.714,-26.812L229.714,17.376L241.092,17.376L241.092,-26.812ZM285.465,-2.469C286.611,-21.432 279.114,-27.782 267.825,-27.782C255.388,-27.782 247.803,-19.315 247.803,-3.527C247.803,12.613 255.388,18.346 267.031,18.346C273.469,18.346 279.82,16.494 285.2,13.672L283.612,7.145C278.409,8.909 273.205,9.703 269.236,9.703C262.974,9.703 259.357,6.263 259.357,-1.851L259.357,-2.469L285.465,-2.469ZM274.528,-9.525L259.445,-9.525C259.798,-15.699 262.444,-20.197 267.295,-20.197C272.058,-20.197 274.528,-16.757 274.528,-9.701L274.528,-9.525ZM316.669,15.348L315.787,8.821C312.964,9.615 311.112,9.791 309.789,9.791C306.79,9.791 305.732,8.38 305.732,3.882L305.732,-18.874L315.522,-18.874L315.522,-26.812L305.732,-26.812L305.732,-39.689L297.529,-39.689C296.647,-34.75 295.853,-30.781 294.795,-26.812L288.798,-26.812L288.798,-18.874L294.442,-18.874L294.442,6.704C294.442,15.171 297.441,18.258 305.644,18.258C308.995,18.258 312.523,17.464 316.669,15.348M357.293,-2.469C358.44,-21.432 350.943,-27.782 339.653,-27.782C327.217,-27.782 319.632,-19.315 319.632,-3.527C319.632,12.613 327.217,18.346 338.86,18.346C345.298,18.346 351.649,16.494 357.029,13.672L355.441,7.145C350.237,8.909 345.034,9.703 341.065,9.703C334.802,9.703 331.186,6.263 331.186,-1.851L331.186,-2.469L357.293,-2.469ZM346.357,-9.525L331.274,-9.525C331.627,-15.699 334.273,-20.197 339.124,-20.197C343.887,-20.197 346.357,-16.757 346.357,-9.701L346.357,-9.525ZM401.86,-7.761C401.86,-22.137 397.273,-27.782 388.365,-27.782C383.25,-27.782 378.751,-25.577 374.959,-22.137L374.165,-26.812L364.816,-26.812L364.816,17.376L376.194,17.376L376.194,-15.081C379.104,-17.286 382.015,-18.698 384.396,-18.698C388.453,-18.698 390.482,-16.316 390.482,-5.82C390.482,-0.617 390.217,8.468 390.217,17.376L401.507,17.376C401.507,7.674 401.86,-2.292 401.86,-7.761M439.398,4.234C439.398,-2.116 436.134,-6.261 427.491,-9.172C421.228,-11.465 419.729,-12.788 419.729,-15.434C419.729,-17.904 421.758,-20.021 426.344,-20.021C428.814,-20.021 431.371,-19.58 435.076,-18.698L436.31,-24.519C431.724,-26.9 427.932,-27.782 423.963,-27.782C414.261,-27.782 407.822,-22.402 407.822,-14.376C407.822,-7.937 411.085,-4.321 419.553,-1.322C425.991,0.971 427.402,2.47 427.402,5.381C427.402,8.027 425.197,10.232 419.376,10.232C416.642,10.232 413.643,9.879 408.616,8.733L407.646,14.642C411.967,17.023 416.466,18.258 421.405,18.258C432.783,18.258 439.398,12.261 439.398,4.234M459.445,11.643C459.445,6.439 458.21,4.94 452.918,4.94C447.361,4.94 446.127,6.439 446.127,11.731C446.127,16.847 447.361,18.346 452.83,18.346C458.21,18.346 459.445,16.847 459.445,11.643M503.288,17.376L503.288,-45.158L491.911,-45.158L491.911,-27.518C490.764,-27.606 488.735,-27.782 486.971,-27.782C474.8,-27.782 465.186,-20.726 465.186,-2.91C465.186,8.909 470.39,18.346 480.709,18.346C485.384,18.346 489.441,16.053 493.145,12.878L494.028,17.376L503.288,17.376ZM491.911,5.91C489,8.38 486.178,9.615 484.061,9.615C479.563,9.615 476.828,4.852 476.828,-4.497C476.828,-14.993 480.797,-19.668 486.53,-19.668C488.471,-19.668 490.323,-19.315 491.911,-18.786L491.911,5.91ZM547.979,-2.469C549.126,-21.432 541.629,-27.782 530.339,-27.782C517.903,-27.782 510.318,-19.315 510.318,-3.527C510.318,12.613 517.903,18.346 529.545,18.346C535.984,18.346 542.334,16.494 547.715,13.672L546.127,7.145C540.923,8.909 535.719,9.703 531.75,9.703C525.488,9.703 521.872,6.263 521.872,-1.851L521.872,-2.469L547.979,-2.469ZM537.042,-9.525L521.96,-9.525C522.313,-15.699 524.959,-20.197 529.81,-20.197C534.573,-20.197 537.042,-16.757 537.042,-9.701L537.042,-9.525Z" style="fill:rgb(136,139,140);fill-rule:nonzero;"/>
    </g>
</svg>
