<?xml version="1.0" encoding="UTF-8" standalone="no"?>
<!DOCTYPE svg PUBLIC "-//W3C//DTD SVG 1.1//EN" "http://www.w3.org/Graphics/SVG/1.1/DTD/svg11.dtd">
<svg width="100%" height="100%" viewBox="0 0 734 150" version="1.1" xmlns="http://www.w3.org/2000/svg" xmlns:xlink="http://www.w3.org/1999/xlink" xml:space="preserve" xmlns:serif="http://www.serif.com/" style="fill-rule:evenodd;clip-rule:evenodd;stroke-linejoin:round;stroke-miterlimit:2;">
    <g transform="matrix(4.16667,0,0,4.16667,0,0)">
        <path d="M132.606,9.099L133.013,9.099L133.013,7.762L133.521,7.762C134.001,7.762 134.117,7.879 134.161,8.329C134.219,8.794 134.248,8.91 134.306,9.099L134.727,9.099C134.626,8.808 134.597,8.532 134.553,8.169C134.509,7.806 134.408,7.675 134.103,7.602C134.655,7.443 134.655,6.978 134.655,6.891C134.655,6.15 133.87,6.15 133.652,6.15L132.606,6.15L132.606,9.099ZM133.013,6.498L133.652,6.498C133.87,6.498 134.233,6.498 134.233,6.963C134.233,7.414 133.856,7.414 133.652,7.414L133.013,7.414L133.013,6.498ZM133.609,4.9C132.141,4.9 130.862,6.106 130.862,7.646C130.862,9.186 132.127,10.407 133.609,10.407C135.105,10.407 136.355,9.186 136.355,7.646C136.355,6.12 135.12,4.9 133.609,4.9ZM133.609,5.227C134.974,5.227 136.028,6.346 136.028,7.646C136.028,8.997 134.945,10.087 133.609,10.087C132.286,10.087 131.189,9.012 131.189,7.646C131.189,6.317 132.286,5.227 133.609,5.227Z" style="fill:rgb(95,96,98);fill-rule:nonzero;"/>
        <path d="M175.748,3.223L175.748,20.757C175.597,28.261 170.773,36 157.278,36L146.038,36C144.276,36 142.843,34.588 142.809,32.834L142.809,15.299C142.959,7.796 147.297,0.057 160.521,0.057L172.518,0.057C174.28,0.057 175.713,1.468 175.748,3.223Z" style="fill:rgb(95,96,98);fill-rule:nonzero;"/>
        <path d="M160.911,11.651C161.718,12.458 165.099,15.818 166.92,17.815C169.241,20.36 169.17,23.631 165.653,25.387C162.853,26.785 155.417,30.866 153.647,31.793C153.395,31.925 152.903,32.052 152.758,31.808L149.838,26.82C149.678,26.556 149.749,26.009 150.026,25.874C151.943,24.939 159.315,21.419 159.666,21.257C160.086,21.065 160.475,20.232 159.82,19.52C159.49,19.161 155.572,14.855 153.712,12.171C151.206,9.046 153.583,4.819 157.703,4.819C159.757,4.817 165.681,4.798 167.455,4.819C167.739,4.822 167.99,5.16 167.99,5.442L167.99,9.053C167.99,9.341 167.737,9.594 167.449,9.594L161.402,9.594C160.643,9.594 159.796,10.537 160.911,11.651Z" style="fill:white;fill-rule:nonzero;"/>
        <path d="M64.482,12.274L64.482,20.997C64.482,21.264 64.247,21.5 63.979,21.5L59.694,21.5C59.427,21.5 59.192,21.264 59.192,20.997L59.192,5.168C59.192,4.9 59.427,4.665 59.694,4.665L64.575,4.665C64.676,4.665 64.954,4.824 65.006,4.911L70.338,13.863L70.338,5.168C70.338,4.9 70.573,4.665 70.841,4.665L75.102,4.665C75.37,4.665 75.605,4.9 75.605,5.168L75.605,20.997C75.605,21.264 75.37,21.5 75.102,21.5L70.224,21.5C70.12,21.5 69.842,21.339 69.79,21.249C68.052,18.245 66.314,15.223 64.482,12.274Z" style="fill:rgb(212,17,69);fill-rule:nonzero;"/>
        <path d="M101.256,8.955L101.256,10.809L108.706,10.809C108.974,10.809 109.209,11.044 109.209,11.312L109.209,14.457C109.209,14.724 108.974,14.959 108.706,14.959L101.256,14.959L101.256,17.116L108.906,17.116C109.174,17.116 109.409,17.351 109.409,17.619L109.409,20.997C109.409,21.264 109.174,21.499 108.906,21.499L96.119,21.499C95.851,21.499 95.617,21.264 95.617,20.997L95.617,5.168C95.617,4.9 95.851,4.665 96.119,4.665L108.906,4.665C109.174,4.665 109.409,4.9 109.409,5.168L109.409,8.453C109.409,8.72 109.174,8.955 108.906,8.955L101.256,8.955Z" style="fill:rgb(212,17,69);fill-rule:nonzero;"/>
        <path d="M85.929,10.989C86.681,11.74 89.828,14.868 91.523,16.727C93.685,19.096 93.616,22.141 90.344,23.776C87.736,25.077 80.815,28.876 79.168,29.738C78.934,29.861 78.476,29.979 78.34,29.753L75.621,25.109C75.474,24.864 75.539,24.354 75.797,24.228C77.581,23.358 84.444,20.081 84.77,19.931C85.163,19.752 85.523,18.977 84.914,18.314C84.607,17.98 80.96,13.971 79.228,11.472C76.895,8.565 79.108,4.63 82.944,4.63C84.856,4.627 90.369,4.61 92.022,4.63C92.284,4.632 92.518,4.946 92.518,5.209L92.518,8.571C92.518,8.839 92.283,9.074 92.015,9.074L86.386,9.074C85.679,9.074 84.891,9.952 85.929,10.989Z" style="fill:rgb(212,17,69);fill-rule:nonzero;"/>
        <path d="M33.436,15.795C32.454,16.137 31.34,16.288 30.209,16.354C29.151,16.416 27.162,16.405 26.135,16.403L26.135,20.997C26.135,21.264 25.9,21.499 25.633,21.499L20.952,21.499C20.685,21.499 20.449,21.264 20.449,20.997L20.449,5.168C20.449,4.9 20.685,4.665 20.952,4.665L29.769,4.665C33.612,4.665 36.859,6.192 36.859,10.592C36.859,13.625 35.428,15.102 33.436,15.795ZM29.304,8.903L26.036,8.903L26.036,12.142L29.28,12.142C30.416,12.142 31.413,11.7 31.435,10.494C31.43,9.3 30.422,8.903 29.304,8.903Z" style="fill:rgb(212,17,69);fill-rule:nonzero;"/>
        <path d="M126.742,13.61C127.991,14.001 128.628,14.804 128.935,15.807C129.113,16.385 129.179,17.025 129.203,17.675C129.227,18.321 129.207,18.991 129.207,19.645L129.207,20.996C129.207,21.263 128.973,21.498 128.705,21.498L124.288,21.498C124.02,21.498 123.785,21.263 123.785,20.995C123.786,20.39 123.787,19.436 123.784,19.301C123.76,18.404 123.688,17.528 123.423,16.876C123.158,16.223 122.699,15.797 121.909,15.797L118.323,15.797L118.323,20.997C118.323,21.264 118.088,21.499 117.82,21.499L113.233,21.499C112.965,21.499 112.73,21.264 112.73,20.997L112.73,5.167C112.73,4.9 112.965,4.665 113.233,4.665L123.236,4.665C126.209,4.665 129.231,5.999 129.231,9.498C129.231,11.327 128.401,12.921 126.742,13.61ZM118.247,8.879L118.247,11.884L121.7,11.862C122.222,11.862 122.773,11.819 123.194,11.624C123.614,11.429 123.9,11.082 123.9,10.475C123.9,9.242 123.154,8.879 121.98,8.879L118.247,8.879Z" style="fill:rgb(212,17,69);fill-rule:nonzero;"/>
        <path d="M10.385,10.989C11.136,11.74 14.283,14.868 15.979,16.727C18.14,19.096 18.073,22.141 14.799,23.776C12.192,25.077 5.271,28.876 3.623,29.738C3.389,29.861 2.932,29.979 2.795,29.753L0.077,25.109C-0.07,24.864 -0.004,24.354 0.252,24.228C2.036,23.358 8.9,20.081 9.226,19.931C9.617,19.752 9.979,18.977 9.37,18.314C9.063,17.98 5.415,13.971 3.684,11.472C1.351,8.565 3.564,4.63 7.399,4.63C9.311,4.627 14.825,4.61 16.477,4.63C16.74,4.632 16.974,4.946 16.974,5.209L16.974,8.571C16.974,8.839 16.739,9.074 16.471,9.074L10.841,9.074C10.135,9.074 9.347,9.952 10.385,10.989Z" style="fill:rgb(212,17,69);fill-rule:nonzero;"/>
        <path d="M51.471,12.829C51.471,10.676 49.726,8.931 47.574,8.931C45.421,8.931 43.677,10.676 43.677,12.829C43.677,14.982 45.421,16.726 47.574,16.726C49.726,16.726 51.471,14.982 51.471,12.829ZM56.591,12.829C56.591,17.81 52.554,21.848 47.574,21.848C42.593,21.848 38.556,17.81 38.556,12.829C38.556,7.848 42.593,3.81 47.574,3.81C52.554,3.81 56.591,7.848 56.591,12.829Z" style="fill:rgb(212,17,69);fill-rule:nonzero;"/>
        <path d="M31.782,29.259C32.037,29.259 32.381,29.147 32.381,28.844C32.381,28.211 29.953,28.555 29.953,26.89C29.953,26.026 30.776,25.676 31.527,25.676C32.345,25.676 33.286,26.097 33.274,27.032L33.274,27.062L32.226,27.062C32.197,26.66 31.853,26.511 31.498,26.511C31.255,26.511 30.959,26.594 30.959,26.89C30.959,27.548 33.393,27.216 33.387,28.749C33.387,29.756 32.422,30.082 31.575,30.082C30.704,30.082 29.846,29.626 29.858,28.655L29.858,28.607L30.888,28.607C30.918,29.123 31.338,29.259 31.782,29.259Z" style="fill:rgb(95,96,98);fill-rule:nonzero;"/>
        <path d="M41.373,25.789C42.202,25.789 42.688,26.281 42.688,27.11C42.688,28.56 41.509,28.477 40.426,28.477L40.426,29.97L39.365,29.97L39.365,25.789L41.373,25.789ZM41.634,27.139C41.634,26.843 41.485,26.63 41.172,26.63L40.426,26.63L40.426,27.625L41.089,27.625C41.402,27.625 41.634,27.477 41.634,27.139Z" style="fill:rgb(95,96,98);fill-rule:nonzero;"/>
        <path d="M52.218,27.909C52.218,29.165 51.425,30.082 50.133,30.082C48.807,30.082 48.043,29.206 48.043,27.909C48.043,26.666 48.801,25.676 50.104,25.676C51.43,25.676 52.218,26.624 52.218,27.909ZM50.116,29.182C50.85,29.182 51.152,28.519 51.152,27.885C51.152,27.257 50.874,26.565 50.151,26.565C49.423,26.565 49.109,27.198 49.109,27.844C49.109,28.484 49.376,29.188 50.122,29.188L50.116,29.182Z" style="fill:rgb(95,96,98);fill-rule:nonzero;"/>
        <path d="M60.221,25.789C61.008,25.789 61.666,26.085 61.666,26.967C61.666,27.435 61.441,27.808 60.99,27.962C61.429,28.128 61.553,28.442 61.553,28.874C61.553,29.028 61.541,29.182 61.541,29.342C61.541,29.519 61.559,29.727 61.731,29.828L61.731,29.97L60.618,29.976C60.469,29.774 60.505,29.384 60.505,29.141C60.505,28.762 60.464,28.406 59.996,28.406L59.173,28.406L59.173,29.97L58.136,29.97L58.136,25.789L60.221,25.789ZM60.606,27.121C60.606,26.731 60.351,26.63 60.008,26.63L59.173,26.63L59.173,27.577L60.043,27.577C60.339,27.577 60.606,27.447 60.606,27.121Z" style="fill:rgb(95,96,98);fill-rule:nonzero;"/>
        <path d="M108.798,27.909C108.798,29.165 108.006,30.082 106.714,30.082C105.387,30.082 104.623,29.206 104.623,27.909C104.623,26.666 105.382,25.676 106.685,25.676C108.011,25.676 108.798,26.624 108.798,27.909ZM106.696,29.182C107.43,29.182 107.732,28.519 107.732,27.885C107.732,27.257 107.455,26.565 106.732,26.565C106.004,26.565 105.69,27.198 105.69,27.844C105.69,28.484 105.957,29.188 106.703,29.188L106.696,29.182Z" style="fill:rgb(95,96,98);fill-rule:nonzero;"/>
        <path d="M119.271,27.909C119.271,29.165 118.477,30.082 117.186,30.082C115.859,30.082 115.095,29.206 115.095,27.909C115.095,26.666 115.854,25.676 117.156,25.676C118.483,25.676 119.271,26.624 119.271,27.909ZM117.168,29.182C117.902,29.182 118.204,28.519 118.204,27.885C118.204,27.257 117.927,26.565 117.204,26.565C116.476,26.565 116.162,27.198 116.162,27.844C116.162,28.484 116.427,29.188 117.174,29.188L117.168,29.182Z" style="fill:rgb(95,96,98);fill-rule:nonzero;"/>
        <path d="M127.522,25.789C128.86,25.789 129.44,26.47 129.44,27.779C129.44,28.868 128.942,29.97 127.699,29.97L125.769,29.97L125.769,25.789L127.522,25.789ZM128.368,27.867C128.368,27.21 128.256,26.683 127.474,26.683L126.828,26.683L126.828,29.07L127.497,29.07C128.238,29.07 128.368,28.484 128.368,27.867Z" style="fill:rgb(95,96,98);fill-rule:nonzero;"/>
        <path d="M26.166,29.651C26.166,29.918 25.926,30.154 25.653,30.154L20.963,30.154C20.69,30.154 20.45,29.918 20.45,29.651L20.45,26.115C20.45,25.847 20.69,25.612 20.963,25.612L25.653,25.612C25.926,25.612 26.166,25.847 26.166,26.115" style="fill:rgb(212,17,69);fill-rule:nonzero;"/>
        <path d="M70.604,25.789L70.604,26.66L69.396,26.66L69.396,29.97L68.324,29.97L68.324,26.66L67.116,26.66L67.116,25.789L70.604,25.789Z" style="fill:rgb(95,96,98);fill-rule:nonzero;"/>
        <path d="M98.587,25.789L98.587,26.66L96.568,26.66L96.568,27.53L98.345,27.53L98.345,28.4L96.568,28.4L96.568,29.97L95.514,29.97L95.514,25.789L98.587,25.789Z" style="fill:rgb(95,96,98);fill-rule:nonzero;"/>
        <path d="M21.618,27.37L22.796,27.37L22.796,26.192L23.82,26.192L23.82,27.37L24.998,27.37L24.998,28.394L23.82,28.394L23.82,29.572L22.796,29.572L22.796,28.394L21.618,28.394L21.618,27.37Z" style="fill:white;fill-rule:nonzero;"/>
    </g>
</svg>
