<?xml version="1.0" encoding="UTF-8" standalone="no"?>
<!DOCTYPE svg PUBLIC "-//W3C//DTD SVG 1.1//EN" "http://www.w3.org/Graphics/SVG/1.1/DTD/svg11.dtd">
<svg width="100%" height="100%" viewBox="0 0 729 324" version="1.1" xmlns="http://www.w3.org/2000/svg" xmlns:xlink="http://www.w3.org/1999/xlink" xml:space="preserve" xmlns:serif="http://www.serif.com/" style="fill-rule:evenodd;clip-rule:evenodd;stroke-linejoin:round;stroke-miterlimit:2;">
    <g>
        <path d="M153.972,175.338C157.861,183.447 163.047,187.674 170.187,187.674C177.645,187.674 184.785,181.83 185.767,175.338C186.412,173.387 185.767,171.124 184.461,169.831C182.52,168.201 179.92,166.908 174.401,164.308C166.615,161.064 165.001,160.095 162.402,156.847C159.157,153.603 158.185,148.417 159.157,142.897C161.753,127.327 177,115.004 193.549,115.004C203.597,115.004 210.089,118.572 214.306,126.358L202.628,137.387C199.707,131.867 195.491,128.957 189.981,128.957C183.813,128.957 177.969,133.495 177,139.329C176.676,141.28 177,143.221 177.969,144.524C179.599,146.142 180.892,147.124 187.705,149.71C193.873,152.634 197.118,154.572 199.707,157.171C202.952,160.74 204.245,165.925 203.276,171.769C200.352,188.967 184.137,201.938 166.615,201.938C154.94,201.938 147.155,197.397 142.942,187.674L153.972,175.338Z" style="fill:rgb(0,74,135);fill-rule:nonzero;"/>
        <path d="M215.602,143.224L223.721,143.224L227.614,128.95L243.505,128.95L239.603,143.224L253.232,143.224L249.339,157.178L236.044,157.178L230.2,178.265C229.555,180.206 229.231,181.823 229.231,182.792C228.583,186.037 230.849,188.312 234.417,188.312C236.368,188.312 237.986,187.991 240.261,187.343L239.292,199.666C233.769,200.972 229.879,201.617 225.663,201.617C216.25,201.617 210.74,195.773 212.034,187.343C212.358,185.726 213.002,183.126 213.34,180.854L219.819,157.178L212.034,157.178L215.602,143.224Z" style="fill:rgb(0,74,135);fill-rule:nonzero;"/>
        <path d="M298.978,143.224L314.869,143.224L299.626,200.324L283.41,200.324L285.673,192.863C280.487,199.021 274.319,201.941 266.537,201.941C253.232,201.941 246.095,191.236 249.015,175.344C251.939,157.178 267.519,141.931 282.762,141.931C288.272,141.931 293.134,144.194 295.409,147.762C296.057,148.734 296.378,149.392 296.715,151.01L298.978,143.224ZM264.92,172.421L264.582,173.714C263.289,182.482 267.182,187.991 274.319,187.991C282.762,187.991 291.192,179.882 292.81,169.821C294.116,161.715 290.223,155.872 282.762,155.872C274.977,155.872 266.537,163.008 264.92,172.421Z" style="fill:rgb(0,74,135);fill-rule:nonzero;"/>
        <path d="M372.941,116.621L388.832,116.621L366.462,200.321L350.233,200.321L352.509,192.539C347.958,198.703 341.479,201.938 333.036,201.938C319.42,201.938 312.607,191.877 315.193,175.986C318.437,157.174 334.018,141.604 349.909,141.604C357.37,141.604 361.911,144.528 363.528,150.682L372.941,116.621ZM332.067,172.093L331.742,174.035C330.125,182.478 334.018,187.988 341.479,187.988C349.909,187.988 357.694,180.203 359.636,169.497C360.939,161.388 357.05,155.878 349.909,155.878C342.127,155.878 334.666,162.681 332.067,172.093Z" style="fill:rgb(0,74,135);fill-rule:nonzero;"/>
        <path d="M388.836,143.224L396.955,143.224L400.513,128.95L416.739,128.95L412.836,143.224L426.154,143.224L422.573,157.178L408.944,157.178L403.113,178.265C402.789,180.206 402.464,181.823 402.141,182.792C401.82,186.037 403.758,188.312 407.65,188.312C409.281,188.312 410.895,187.991 413.494,187.343L412.191,199.666C406.681,200.972 403.113,201.617 398.896,201.617C389.16,201.617 383.65,195.773 385.267,187.343C385.267,185.726 385.915,183.126 386.573,180.854L393.052,157.178L384.946,157.178L388.836,143.224Z" style="fill:rgb(0,74,135);fill-rule:nonzero;"/>
        <path d="M446.259,143.224L447.876,168.852C448.21,171.128 447.876,174.372 447.228,177.607C447.228,178.265 446.907,178.913 446.583,180.206C448.21,176.962 448.525,175.344 449.503,173.393C450.152,172.097 451.121,170.47 452.103,168.852L467.336,143.224L479.024,143.224L480.32,168.852C480.641,173.069 480.32,175.344 479.672,179.558L479.672,180.206C481.29,175.344 482.596,172.097 484.534,168.852L500.114,143.224L516.654,143.224L480.965,200.324L468.642,200.324L467.336,174.038C467.015,169.501 467.336,166.577 468.318,161.715C467.015,164.96 466.367,165.932 465.398,168.207C464.426,169.821 463.457,171.776 462.151,174.038L446.907,200.324L434.584,200.324L429.71,143.224L446.259,143.224Z" style="fill:rgb(0,74,135);fill-rule:nonzero;"/>
        <path d="M523.467,176.962C522.818,184.747 526.711,189.609 533.527,189.609C538.389,189.609 545.526,186.04 550.712,180.854L559.8,188.964L559.479,189.288C549.095,198.376 541.309,201.931 530.28,201.931C514.064,201.931 505.624,191.884 508.544,175.668C511.468,156.844 528.662,141.597 546.174,141.597C561.755,141.597 569.527,152.306 566.616,169.18C566.279,171.442 565.634,173.393 564.665,176.962L523.467,176.962ZM526.39,166.256L551.694,166.256L551.694,165.932C552.987,158.471 549.743,153.599 542.927,153.599C536.114,153.599 530.28,158.471 526.39,166.256Z" style="fill:rgb(0,74,135);fill-rule:nonzero;"/>
        <path d="M581.859,143.224L597.754,143.224L595.164,152.961C598.723,145.824 605.215,141.597 613.321,141.597C615.272,141.597 616.566,141.931 618.52,142.576L611.38,158.471C609.105,157.823 607.811,157.823 605.86,157.823C601.967,157.823 598.723,159.116 595.479,162.039C592.568,164.639 591.262,166.911 589.645,172.421L582.184,200.324L566.279,200.324L581.859,143.224Z" style="fill:rgb(0,74,135);fill-rule:nonzero;"/>
        <path d="M632.146,116.621L648.362,116.621L634.408,168.525L658.419,143.221L677.558,143.221L650.637,170.479L664.577,200.321L644.793,200.321L633.439,171.772L625.654,200.321L609.763,200.321L632.146,116.621Z" style="fill:rgb(0,74,135);fill-rule:nonzero;"/>
        <path d="M684.371,176.962C683.726,184.747 687.619,189.609 694.431,189.609C699.293,189.609 706.43,186.04 711.616,180.854L720.707,188.964L720.383,189.288C709.999,198.376 702.217,201.931 691.187,201.931C674.958,201.931 666.528,191.884 669.448,175.668C672.372,156.844 689.57,141.597 707.078,141.597C722.659,141.597 730.444,152.306 727.52,169.18C727.196,171.442 726.551,173.393 725.569,176.962L684.371,176.962ZM687.294,166.256L712.588,166.256L712.588,165.932C713.891,158.471 710.647,153.599 703.834,153.599C697.018,153.599 691.187,158.471 687.294,166.256Z" style="fill:rgb(0,74,135);fill-rule:nonzero;"/>
        <path d="M477.076,78.991L477.076,79.96C445.928,54.008 408.623,35.193 368.397,25.794C326.878,15.733 283.08,14.427 240.902,19.626C199.704,24.812 160.136,37.469 124.448,57.901C89.083,78.019 57.301,104.619 37.504,139.325C18.368,172.738 11.876,211.671 23.229,248.653C31.994,277.525 50.485,303.153 73.837,323.919C41.072,303.477 16.751,271.681 6.042,236.33C-4.988,200.317 -0.447,162.043 17.72,128.629C36.21,94.558 66.7,66.007 101.406,45.902C140.339,23.195 185.44,8.921 230.855,3.411C274.325,-1.788 319.416,0.811 361.584,12.165C403.437,23.519 443.663,44.606 473.184,75.099C474.48,76.392 475.783,77.695 477.076,78.991Z" style="fill:rgb(0,74,135);fill-rule:nonzero;"/>
        <path d="M214.306,216.215L235.072,216.215C239.285,216.215 241.885,216.215 244.147,216.863C252.59,218.815 258.1,226.6 258.1,236.657C258.1,247.029 253.563,253.197 243.826,255.796L262.317,285.641L246.422,285.641L227.931,254.169L227.931,285.641L214.306,285.641L214.306,216.215ZM227.931,248.335L233.117,248.335C240.258,248.335 244.484,244.433 244.484,237.63C244.484,231.138 240.578,227.569 233.441,227.569L227.931,227.569L227.931,248.335Z" style="fill:rgb(129,134,138);fill-rule:nonzero;"/>
        <path d="M276.27,266.499C277.242,272.981 281.456,276.883 287.3,276.883C291.192,276.883 296.378,273.96 299.302,269.733L308.701,276.225C302.546,284.02 296.378,286.931 287.3,286.931C273.026,286.931 263.289,277.207 263.289,262.609C263.289,248.008 273.35,236.978 286.976,236.978C300.595,236.978 310.007,247.687 310.007,262.93L310.007,266.499L276.27,266.499ZM276.27,257.411L297.036,257.411C296.378,250.918 292.486,247.029 286.655,247.029C281.132,247.029 277.242,250.918 276.27,257.411Z" style="fill:rgb(129,134,138);fill-rule:nonzero;"/>
        <path d="M323.96,217.512C328.498,217.512 332.067,221.08 332.067,224.973C332.067,228.866 328.498,232.113 323.96,232.113C319.744,232.113 316.175,228.866 316.175,224.973C316.175,221.08 319.744,217.512 323.96,217.512ZM317.469,238.278L330.773,238.278L330.773,285.644L317.469,285.644L317.469,238.278Z" style="fill:rgb(129,134,138);fill-rule:nonzero;"/>
        <path d="M372.62,251.249C369.372,249.632 367.097,249.294 364.187,249.294C357.05,249.294 351.864,254.817 351.864,261.954C351.864,269.74 357.05,274.935 364.187,274.935C367.097,274.935 369.697,274.278 372.62,272.336L376.833,282.073C375.54,283.045 374.571,283.366 373.913,284.014C370.345,285.965 366.128,286.937 361.911,286.937C348.619,286.937 338.559,276.553 338.559,262.279C338.559,247.681 348.93,236.972 362.883,236.972C367.755,236.972 371.648,237.954 376.833,240.54L372.62,251.249Z" style="fill:rgb(129,134,138);fill-rule:nonzero;"/>
        <path d="M382.995,216.215L396.3,216.215L396.3,244.119C399.869,239.247 403.761,236.982 409.595,236.982C414.791,236.982 419.331,239.247 421.931,242.816C424.193,246.06 425.175,248.983 425.175,256.12L425.175,285.641L411.87,285.641L411.87,259.031C411.87,257.414 411.546,255.796 411.546,254.814C410.898,251.246 407.978,248.983 404.409,248.983C402.134,248.983 399.548,250.277 398.241,252.552C396.948,254.49 396.3,256.441 396.3,260.982L396.3,285.641L382.995,285.641L382.995,216.215Z" style="fill:rgb(129,134,138);fill-rule:nonzero;"/>
        <path d="M444.314,266.499C445.284,272.981 449.51,276.883 455.344,276.883C459.237,276.883 464.422,273.96 467.343,269.733L476.755,276.225C470.587,284.02 464.422,286.931 455.344,286.931C441.067,286.931 431.33,277.207 431.33,262.609C431.33,248.008 441.391,236.978 455.02,236.978C468.636,236.978 478.048,247.687 478.048,262.93L478.048,266.499L444.314,266.499ZM444.314,257.411L465.081,257.411C464.422,250.918 460.53,247.029 454.686,247.029C449.176,247.029 445.284,250.918 444.314,257.411Z" style="fill:rgb(129,134,138);fill-rule:nonzero;"/>
        <path d="M484.537,238.275L497.518,238.275L497.518,245.087C500.117,239.892 505.3,236.982 511.782,236.982C516.333,236.982 520.871,238.92 523.47,242.167C526.066,245.412 526.714,248.335 526.714,255.796L526.714,285.638L513.409,285.638L513.409,259.041C513.409,257.09 513.085,255.796 513.085,254.824C512.44,251.246 509.517,248.656 505.948,248.656C500.762,248.656 497.518,252.873 497.518,260.334L497.518,285.638L484.537,285.638L484.537,238.275Z" style="fill:rgb(129,134,138);fill-rule:nonzero;"/>
        <path d="M535.148,216.215L548.119,216.215L548.119,244.119C549.088,242.816 549.422,242.492 550.07,241.522C552.67,238.599 556.883,236.982 561.424,236.982C573.423,236.982 582.177,247.677 582.177,261.964C582.177,276.229 573.423,286.934 561.424,286.934C556.559,286.934 552.67,285.641 550.07,282.717C549.422,281.748 549.088,281.09 548.119,279.473L548.119,285.641L535.148,285.641L535.148,216.215ZM547.147,262.275C547.147,270.07 551.687,275.256 558.5,275.256C564.992,275.256 569.206,269.736 569.206,261.964C569.206,254.169 564.668,248.659 558.176,248.659C551.687,248.659 547.147,253.845 547.147,262.275Z" style="fill:rgb(129,134,138);fill-rule:nonzero;"/>
        <path d="M621.765,238.275L634.732,238.275L634.732,285.638L621.765,285.638L621.765,279.473C618.841,284.669 614.304,286.931 608.135,286.931C596.133,286.931 587.369,276.563 587.369,261.961C587.369,248.011 596.133,236.982 607.811,236.982C612.673,236.982 616.899,238.92 619.81,242.167C620.468,242.812 620.782,243.47 621.765,244.767L621.765,238.275ZM600.026,261.961C600.026,270.07 604.567,275.58 611.38,275.58C617.872,275.58 622.41,270.07 622.41,261.961C622.41,254.49 617.548,248.656 611.056,248.656C604.567,248.656 600.026,254.49 600.026,261.961Z" style="fill:rgb(129,134,138);fill-rule:nonzero;"/>
        <path d="M675.286,251.249C672.051,249.632 669.776,249.294 666.856,249.294C660.039,249.294 654.519,254.817 654.519,261.954C654.519,269.74 659.719,274.935 666.856,274.935C670.1,274.935 672.362,274.278 675.286,272.336L679.823,282.073C678.209,283.045 677.237,283.366 676.579,284.014C673.344,285.965 668.807,286.937 664.58,286.937C651.285,286.937 641.548,276.553 641.548,262.279C641.548,247.681 651.609,236.972 665.562,236.972C670.748,236.972 674.317,237.954 679.503,240.54L675.286,251.249Z" style="fill:rgb(129,134,138);fill-rule:nonzero;"/>
        <path d="M685.022,216.215L698.327,216.215L698.327,244.119C701.883,239.247 705.785,236.982 711.295,236.982C716.481,236.982 721.032,239.247 723.955,242.816C726.217,246.06 726.866,248.983 726.866,256.12L726.866,285.641L713.57,285.641L713.57,259.031C713.57,257.414 713.57,255.796 713.246,254.814C712.588,251.246 710.002,248.983 706.433,248.983C703.834,248.983 701.248,250.277 699.941,252.552C698.648,254.49 698.327,256.441 698.327,260.982L698.327,285.641L685.022,285.641L685.022,216.215Z" style="fill:rgb(129,134,138);fill-rule:nonzero;"/>
    </g>
</svg>
