<?xml version="1.0" encoding="UTF-8" standalone="no"?>
<!DOCTYPE svg PUBLIC "-//W3C//DTD SVG 1.1//EN" "http://www.w3.org/Graphics/SVG/1.1/DTD/svg11.dtd">
<svg width="100%" height="100%" viewBox="0 0 2806 740" version="1.1" xmlns="http://www.w3.org/2000/svg" xmlns:xlink="http://www.w3.org/1999/xlink" xml:space="preserve" xmlns:serif="http://www.serif.com/" style="fill-rule:evenodd;clip-rule:evenodd;stroke-linejoin:round;stroke-miterlimit:2;">
    <g transform="matrix(1,0,0,1,-236.221,-241.456)">
        <g transform="matrix(4.16667,0,0,4.16667,569.882,555.115)">
            <path d="M0,-25.511L15.591,-41.102L1.417,-41.102L-14.173,-25.511L0,-25.511ZM-41.102,-5.668L-5.669,-41.102L-19.843,-41.102L-41.102,-19.842L-41.102,-5.668ZM-41.102,-26.928L-26.929,-41.102L-41.093,-41.102L-41.102,-41.092L-41.102,-26.928ZM-25.512,-14.172L-41.102,1.418L-41.102,15.591L-25.512,0.001L-25.512,-14.172Z" style="fill:rgb(228,0,55);fill-rule:nonzero;"/>
        </g>
        <g transform="matrix(4.16667,0,0,4.16667,3041.34,669.602)">
            <path d="M0,-65.035C0,-66.586 -0.261,-68.016 -0.782,-69.325C-1.303,-70.633 -2.032,-71.757 -2.97,-72.695C-3.908,-73.633 -5.032,-74.362 -6.34,-74.883C-7.648,-75.405 -9.09,-75.665 -10.665,-75.665C-12.24,-75.665 -13.682,-75.405 -14.99,-74.883C-16.298,-74.362 -17.421,-73.633 -18.359,-72.695C-19.297,-71.757 -20.021,-70.633 -20.53,-69.325C-21.04,-68.016 -21.295,-66.586 -21.295,-65.035C-21.295,-63.483 -21.04,-62.053 -20.53,-60.745C-20.021,-59.436 -19.297,-58.313 -18.359,-57.375C-17.421,-56.437 -16.298,-55.708 -14.99,-55.187C-13.682,-54.665 -12.24,-54.405 -10.665,-54.405C-9.09,-54.405 -7.648,-54.665 -6.34,-55.187C-5.032,-55.708 -3.908,-56.437 -2.97,-57.375C-2.032,-58.313 -1.303,-59.436 -0.782,-60.745C-0.261,-62.053 0,-63.483 0,-65.035M-2.154,-65.035C-2.154,-63.761 -2.357,-62.597 -2.762,-61.544C-3.167,-60.49 -3.74,-59.586 -4.481,-58.834C-5.223,-58.081 -6.12,-57.497 -7.174,-57.08C-8.227,-56.663 -9.391,-56.455 -10.665,-56.455C-11.962,-56.455 -13.131,-56.663 -14.173,-57.08C-15.216,-57.497 -16.101,-58.081 -16.831,-58.834C-17.56,-59.586 -18.128,-60.49 -18.533,-61.544C-18.938,-62.597 -19.141,-63.761 -19.141,-65.035C-19.141,-66.309 -18.938,-67.472 -18.533,-68.527C-18.128,-69.58 -17.56,-70.483 -16.831,-71.236C-16.101,-71.988 -15.216,-72.573 -14.173,-72.99C-13.131,-73.407 -11.962,-73.615 -10.665,-73.615C-9.391,-73.615 -8.227,-73.407 -7.174,-72.99C-6.12,-72.573 -5.223,-71.988 -4.481,-71.236C-3.74,-70.483 -3.167,-69.58 -2.762,-68.527C-2.357,-67.472 -2.154,-66.309 -2.154,-65.035M-5.836,-59.616L-8.441,-64.062L-8.407,-64.167C-6.902,-64.629 -6.149,-65.718 -6.149,-67.432C-6.149,-69.864 -7.816,-71.08 -11.151,-71.08C-11.661,-71.08 -12.193,-71.056 -12.749,-71.01C-13.305,-70.963 -13.884,-70.906 -14.486,-70.836L-14.486,-59.616L-12.401,-59.616L-12.401,-63.611L-10.283,-63.611L-8.024,-59.616L-5.836,-59.616ZM-8.928,-65.782C-9.368,-65.446 -10.086,-65.278 -11.081,-65.278L-12.401,-65.278L-12.401,-69.377C-12.216,-69.4 -11.967,-69.417 -11.655,-69.43C-11.342,-69.441 -11.105,-69.447 -10.942,-69.447C-9.97,-69.447 -9.281,-69.273 -8.876,-68.926C-8.471,-68.578 -8.268,-68.069 -8.268,-67.397C-8.268,-66.656 -8.488,-66.117 -8.928,-65.782M-20.768,-32.941C-20.768,-37.981 -22.029,-41.813 -24.549,-44.438C-27.068,-47.063 -30.639,-48.376 -35.258,-48.376C-38.34,-48.376 -41.559,-47.798 -44.919,-46.643C-48.279,-45.488 -52.444,-43.58 -57.414,-40.921L-58.044,-40.921L-58.779,-47.326L-70.434,-47.326L-70.434,9.374L-56.573,9.374L-56.573,-32.311C-53.775,-33.71 -51.061,-34.831 -48.436,-35.671C-45.811,-36.511 -43.485,-36.931 -41.453,-36.931C-39.143,-36.931 -37.411,-36.282 -36.256,-34.988C-35.101,-33.692 -34.524,-31.471 -34.524,-28.321L-34.524,9.374L-20.768,9.374L-20.768,-32.941ZM-84.567,-58.876C-83.307,-60.136 -82.677,-62.095 -82.677,-64.756C-82.677,-67.345 -83.307,-69.271 -84.567,-70.531C-85.827,-71.791 -87.858,-72.421 -90.657,-72.421C-93.458,-72.421 -95.471,-71.807 -96.695,-70.583C-97.92,-69.358 -98.532,-67.415 -98.532,-64.756C-98.532,-62.095 -97.902,-60.136 -96.642,-58.876C-95.382,-57.616 -93.387,-56.986 -90.657,-56.986C-87.858,-56.986 -85.827,-57.616 -84.567,-58.876M-97.523,9.374L-83.663,9.374L-83.663,-47.326L-97.523,-47.326L-97.523,9.374ZM-111.856,-64.756C-109.792,-65.245 -107.183,-65.596 -104.033,-65.806L-104.663,-76.096C-110.194,-75.886 -114.832,-75.324 -118.576,-74.416C-122.321,-73.505 -125.314,-72.07 -127.553,-70.111C-129.794,-68.15 -131.404,-65.56 -132.383,-62.341C-133.364,-59.12 -133.853,-55.096 -133.853,-50.265L-133.853,-47.326L-144.668,-47.326L-144.668,-35.671L-133.958,-35.671L-133.958,9.374L-120.098,9.374L-120.098,-35.671L-106.448,-35.671L-106.448,-47.326L-120.098,-47.326L-120.098,-51.631C-120.098,-54.29 -119.854,-56.495 -119.363,-58.246C-118.874,-59.995 -118.016,-61.396 -116.791,-62.446C-115.567,-63.496 -113.921,-64.265 -111.856,-64.756M-156.585,2.916C-152.001,-2.087 -149.707,-9.384 -149.707,-18.976C-149.707,-28.565 -152.001,-35.863 -156.585,-40.868C-161.17,-45.872 -167.872,-48.376 -176.692,-48.376C-185.583,-48.376 -192.321,-45.872 -196.905,-40.868C-201.49,-35.863 -203.782,-28.565 -203.782,-18.976C-203.782,-9.384 -201.49,-2.087 -196.905,2.916C-192.321,7.922 -185.583,10.424 -176.692,10.424C-167.872,10.424 -161.17,7.922 -156.585,2.916M-163.672,-18.976C-163.672,-15.545 -163.919,-12.657 -164.407,-10.313C-164.898,-7.967 -165.667,-6.061 -166.717,-4.591C-167.767,-3.121 -169.116,-2.053 -170.76,-1.389C-172.405,-0.723 -174.382,-0.391 -176.692,-0.391C-179.073,-0.391 -181.086,-0.723 -182.73,-1.389C-184.375,-2.053 -185.722,-3.121 -186.772,-4.591C-187.822,-6.061 -188.593,-7.967 -189.082,-10.313C-189.573,-12.657 -189.817,-15.545 -189.817,-18.976C-189.817,-22.404 -189.573,-25.292 -189.082,-27.638C-188.593,-29.982 -187.822,-31.89 -186.772,-33.361C-185.722,-34.831 -184.375,-35.897 -182.73,-36.563C-181.086,-37.228 -179.073,-37.561 -176.692,-37.561C-174.382,-37.561 -172.405,-37.228 -170.76,-36.563C-169.116,-35.897 -167.767,-34.831 -166.717,-33.361C-165.667,-31.89 -164.898,-29.982 -164.407,-27.638C-163.919,-25.292 -163.672,-22.404 -163.672,-18.976M-227.617,9.374L-213.862,9.374L-213.862,-32.941C-213.862,-37.981 -215.122,-41.813 -217.642,-44.438C-220.162,-47.063 -223.768,-48.376 -228.457,-48.376C-231.397,-48.376 -234.425,-47.78 -237.539,-46.591C-240.655,-45.399 -244.207,-43.475 -248.197,-40.816L-248.722,-40.816C-250.963,-45.856 -255.302,-48.376 -261.742,-48.376C-264.682,-48.376 -267.674,-47.78 -270.719,-46.591C-273.764,-45.399 -277.318,-43.509 -281.377,-40.921L-282.007,-40.921L-282.742,-47.326L-294.187,-47.326L-294.187,9.374L-280.537,9.374L-280.537,-32.416C-278.297,-33.815 -276.058,-34.899 -273.817,-35.671C-271.577,-36.44 -269.617,-36.826 -267.937,-36.826C-265.487,-36.826 -263.702,-36.159 -262.582,-34.831C-261.463,-33.5 -260.902,-31.295 -260.902,-28.216L-260.902,9.374L-247.147,9.374L-247.147,-32.52C-244.837,-33.85 -242.579,-34.899 -240.374,-35.671C-238.169,-36.44 -236.263,-36.826 -234.652,-36.826C-232.202,-36.826 -230.417,-36.159 -229.297,-34.831C-228.178,-33.5 -227.617,-31.295 -227.617,-28.216L-227.617,9.374ZM-302.092,-35.927L-302.092,-48.333C-302.092,-48.333 -307.902,-48.141 -312.891,-46.043C-317.88,-43.945 -321.088,-41.218 -323.54,-39.396L-324.066,-39.396L-324.802,-47.387L-336.472,-47.387L-336.472,9.388L-322.594,9.388L-322.594,-30.355C-320.632,-31.617 -317.001,-33.655 -312.55,-34.903C-308.1,-36.15 -302.092,-35.927 -302.092,-35.927M-347.052,-18.293C-346.947,-19.517 -346.895,-21.039 -346.895,-22.86C-346.895,-39.8 -354.315,-48.27 -369.155,-48.27C-377.906,-48.27 -384.521,-45.733 -389,-40.658C-393.48,-35.582 -395.72,-28.145 -395.72,-18.345C-395.72,-8.825 -393.48,-1.667 -389,3.127C-384.521,7.922 -377.835,10.319 -368.945,10.319C-365.585,10.319 -362.138,10.02 -358.602,9.426C-355.068,8.833 -351.866,8.045 -348.995,7.064L-349.52,-3.226C-352.46,-2.316 -355.575,-1.615 -358.865,-1.126C-362.156,-0.636 -365.13,-0.391 -367.79,-0.391C-370.17,-0.391 -372.2,-0.636 -373.88,-1.126C-375.56,-1.615 -376.961,-2.42 -378.08,-3.541C-379.2,-4.66 -380.058,-6.129 -380.652,-7.95C-381.248,-9.77 -381.65,-12.009 -381.86,-14.671L-347.525,-14.671C-347.315,-15.86 -347.157,-17.068 -347.052,-18.293M-359.18,-22.966L-381.86,-22.966C-381.51,-28.284 -380.355,-32.153 -378.395,-34.568C-376.436,-36.983 -373.53,-38.191 -369.68,-38.191C-366.11,-38.191 -363.503,-37.018 -361.857,-34.673C-360.213,-32.327 -359.321,-28.425 -359.18,-22.966M-419.869,9.374L-406.009,9.374L-406.009,-32.941C-406.009,-37.981 -407.269,-41.813 -409.789,-44.438C-412.309,-47.063 -415.915,-48.376 -420.604,-48.376C-423.544,-48.376 -426.678,-47.815 -430.002,-46.696C-433.327,-45.575 -437.299,-43.79 -441.919,-41.341L-441.919,-75.466L-455.779,-75.466L-455.779,9.374L-441.919,9.374L-441.919,-32.311C-438.979,-33.78 -436.215,-34.918 -433.624,-35.723C-431.035,-36.527 -428.725,-36.931 -426.694,-36.931C-424.384,-36.931 -422.67,-36.264 -421.549,-34.936C-420.43,-33.605 -419.869,-31.4 -419.869,-28.321L-419.869,9.374ZM-469.638,9.952C-467.819,9.706 -466.139,9.408 -464.598,9.059L-464.598,-1.441C-465.789,-1.09 -466.926,-0.828 -468.011,-0.653C-469.097,-0.478 -470.094,-0.391 -471.003,-0.391C-473.804,-0.391 -475.852,-1.09 -477.146,-2.491C-478.442,-3.891 -479.088,-6.234 -479.088,-9.526L-479.088,-35.566L-464.808,-35.566L-464.808,-47.326L-479.193,-47.326L-479.193,-61.492L-492.948,-61.492L-492.948,-47.326L-503.133,-47.326L-503.133,-35.566L-492.948,-35.566L-492.948,-6.48C-492.948,4.72 -486.999,10.319 -475.098,10.319C-473.279,10.319 -471.459,10.196 -469.638,9.952M-531.496,-33.145C-531.496,-37.999 -531.934,-42.739 -532.779,-47.318L-540.308,-47.318C-539.369,-42.758 -538.866,-38.019 -538.866,-33.145C-538.866,2.079 -564.264,30.634 -602.362,30.634C-640.46,30.634 -665.858,2.079 -665.858,-33.145C-665.858,-63.793 -646.625,-89.382 -616.535,-95.517L-616.535,-102.755C-651.059,-96.544 -673.228,-67.75 -673.228,-33.145C-673.228,5.992 -644.882,37.72 -602.362,37.72C-559.842,37.72 -531.496,5.992 -531.496,-33.145M-612.992,9.374L-556.299,-47.318L-570.472,-47.318L-612.992,-4.799L-612.992,9.374ZM-612.992,-11.886L-577.559,-47.318L-591.732,-47.318L-612.992,-26.059L-612.992,-11.886ZM-612.992,-33.145L-598.819,-47.318L-612.983,-47.318L-612.992,-47.309L-612.992,-33.145Z" style="fill:rgb(0,37,79);fill-rule:nonzero;"/>
        </g>
        <g transform="matrix(4.16667,0,0,4.16667,1034.56,946.387)">
            <path d="M0,-22.23C-2.573,-22.23 -4.543,-21.104 -6.191,-19.094L-6.191,-30.632L-11.336,-30.632L-11.336,-0.361L-6.191,-0.361L-6.191,-15.195C-4.945,-17.125 -3.538,-18.371 -1.729,-18.371C-0.161,-18.371 0.884,-17.607 0.884,-14.954L0.884,-0.361L6.03,-0.361L6.03,-15.758C6.03,-19.778 3.779,-22.23 0,-22.23M29.225,-11.497C29.225,-18.21 25.808,-22.23 19.858,-22.23C13.828,-22.23 10.411,-17.326 10.411,-10.853C10.411,-4.14 13.949,0.242 20.542,0.242C23.758,0.242 26.331,-0.924 28.421,-2.612L26.29,-5.547C24.441,-4.261 22.873,-3.658 20.984,-3.658C18.17,-3.658 16.16,-5.065 15.758,-9.406L29.104,-9.406C29.145,-9.969 29.225,-10.813 29.225,-11.497M24.12,-12.743L15.758,-12.743C16.039,-16.964 17.567,-18.572 19.979,-18.572C22.873,-18.572 24.12,-16.481 24.12,-12.984L24.12,-12.743ZM49.044,-5.989L49.044,-14.914C49.044,-19.617 46.551,-22.23 40.843,-22.23C38.471,-22.23 35.778,-21.707 33.165,-20.702L34.331,-17.205C36.501,-17.929 38.552,-18.331 39.999,-18.331C42.732,-18.331 43.979,-17.406 43.979,-14.632L43.979,-13.426L41.285,-13.426C35.094,-13.426 31.637,-10.934 31.637,-6.311C31.637,-2.452 34.25,0.242 38.471,0.242C41.044,0.242 43.335,-0.683 44.863,-2.934C45.667,-0.844 47.195,-0.04 49.566,0.161L50.652,-3.256C49.607,-3.658 49.044,-4.261 49.044,-5.989M39.878,-3.497C37.908,-3.497 36.863,-4.663 36.863,-6.713C36.863,-9.205 38.511,-10.411 41.848,-10.411L43.979,-10.411L43.979,-6.11C43.014,-4.421 41.647,-3.497 39.878,-3.497M65.526,-4.663C64.601,-4.14 63.797,-3.899 62.993,-3.899C61.425,-3.899 60.742,-4.743 60.742,-6.833L60.742,-17.929L65.687,-17.929L65.687,-21.627L60.742,-21.627L60.742,-26.933L55.596,-26.933L55.596,-21.627L52.26,-21.627L52.26,-17.929L55.596,-17.929L55.596,-6.713C55.596,-2.17 57.807,0.202 61.988,0.242C63.878,0.242 65.807,-0.281 67.335,-1.366L65.526,-4.663ZM97.485,-11.497C97.485,-18.21 94.068,-22.23 88.118,-22.23C82.088,-22.23 78.671,-17.326 78.671,-10.853C78.671,-4.14 82.209,0.242 88.802,0.242C92.018,0.242 94.59,-0.924 96.681,-2.612L94.55,-5.547C92.701,-4.261 91.133,-3.658 89.244,-3.658C86.43,-3.658 84.42,-5.065 84.018,-9.406L97.364,-9.406C97.404,-9.969 97.485,-10.813 97.485,-11.497M92.379,-12.743L84.018,-12.743C84.299,-16.964 85.827,-18.572 88.239,-18.572C91.133,-18.572 92.379,-16.481 92.379,-12.984L92.379,-12.743ZM111.675,-11.738L117.826,-21.627L112.238,-21.627L108.66,-14.391L105.042,-21.627L99.173,-21.627L105.525,-11.577L98.45,-0.361L104.118,-0.361L108.459,-8.803L112.841,-0.361L118.791,-0.361L111.675,-11.738ZM129.886,-22.23C123.776,-22.23 119.957,-17.607 119.957,-10.813C119.957,-4.019 123.776,0.242 129.926,0.242C132.66,0.242 134.871,-0.643 136.801,-2.21L134.509,-5.467C132.941,-4.462 131.816,-3.939 130.208,-3.939C127.313,-3.939 125.424,-5.748 125.424,-10.894C125.424,-15.999 127.233,-18.17 130.208,-18.17C131.816,-18.17 133.102,-17.687 134.509,-16.642L136.801,-19.738C134.791,-21.466 132.66,-22.23 129.886,-22.23M151.674,-22.23C149.102,-22.23 147.132,-21.104 145.484,-19.094L145.484,-30.632L140.338,-30.632L140.338,-0.361L145.484,-0.361L145.484,-15.195C146.73,-17.125 148.137,-18.371 149.946,-18.371C151.514,-18.371 152.559,-17.607 152.559,-14.954L152.559,-0.361L157.704,-0.361L157.704,-15.758C157.704,-19.778 155.453,-22.23 151.674,-22.23M179.05,-5.989L179.05,-14.914C179.05,-19.617 176.558,-22.23 170.849,-22.23C168.478,-22.23 165.784,-21.707 163.171,-20.702L164.337,-17.205C166.508,-17.929 168.558,-18.331 170.005,-18.331C172.739,-18.331 173.985,-17.406 173.985,-14.632L173.985,-13.426L171.292,-13.426C165.101,-13.426 161.644,-10.934 161.644,-6.311C161.644,-2.452 164.257,0.242 168.478,0.242C171.05,0.242 173.342,-0.683 174.869,-2.934C175.673,-0.844 177.201,-0.04 179.573,0.161L180.658,-3.256C179.613,-3.658 179.05,-4.261 179.05,-5.989M169.885,-3.497C167.915,-3.497 166.87,-4.663 166.87,-6.713C166.87,-9.205 168.518,-10.411 171.854,-10.411L173.985,-10.411L173.985,-6.11C173.02,-4.421 171.653,-3.497 169.885,-3.497M196.417,-22.23C193.723,-22.23 191.593,-20.984 189.944,-18.853L189.542,-21.627L185.08,-21.627L185.08,-0.361L190.226,-0.361L190.226,-15.155C191.472,-17.125 192.839,-18.371 194.688,-18.371C196.296,-18.371 197.301,-17.607 197.301,-14.954L197.301,-0.361L202.447,-0.361L202.447,-15.758C202.447,-19.818 200.236,-22.23 196.417,-22.23M221.219,-21.627L220.938,-19.577C219.451,-21.145 217.561,-22.23 215.149,-22.23C209.963,-22.23 206.667,-17.527 206.667,-11.376C206.667,-5.024 209.441,-0.562 214.788,-0.562C217.36,-0.562 219.25,-1.768 220.536,-3.497L220.536,-0.281C220.536,3.056 219.089,4.463 215.431,4.463C213.139,4.463 210.888,3.82 209.521,3.056L207.913,6.352C209.401,7.237 212.295,8.402 215.833,8.402C222.184,8.402 225.682,5.307 225.682,-0.844L225.682,-21.627L221.219,-21.627ZM216.194,-4.462C213.662,-4.462 212.054,-6.351 212.054,-11.416C212.054,-16.12 213.742,-18.371 216.436,-18.371C218.164,-18.371 219.37,-17.527 220.536,-16.16L220.536,-7.195C219.37,-5.386 218.044,-4.462 216.194,-4.462M248.957,-11.497C248.957,-18.21 245.54,-22.23 239.591,-22.23C233.561,-22.23 230.144,-17.326 230.144,-10.853C230.144,-4.14 233.681,0.242 240.274,0.242C243.49,0.242 246.063,-0.924 248.153,-2.612L246.023,-5.547C244.173,-4.261 242.606,-3.658 240.716,-3.658C237.902,-3.658 235.892,-5.065 235.49,-9.406L248.837,-9.406C248.877,-9.969 248.957,-10.813 248.957,-11.497M243.852,-12.743L235.49,-12.743C235.772,-16.964 237.299,-18.572 239.711,-18.572C242.606,-18.572 243.852,-16.481 243.852,-12.984L243.852,-12.743ZM263.871,-22.19C261.379,-22.19 259.329,-20.501 258.324,-17.446L257.841,-21.627L253.379,-21.627L253.379,-0.361L258.525,-0.361L258.525,-11.698C259.329,-15.275 260.655,-17.165 263.228,-17.165C263.992,-17.165 264.474,-17.084 265.117,-16.924L266.002,-21.908C265.318,-22.109 264.635,-22.19 263.871,-22.19M275.289,-22.23C270.344,-22.23 267.088,-19.577 267.088,-16.039C267.088,-12.904 269.017,-10.813 273.399,-9.607C277.379,-8.482 278.223,-7.919 278.223,-6.15C278.223,-4.542 276.736,-3.577 274.444,-3.577C272.274,-3.577 270.304,-4.421 268.656,-5.668L266.083,-2.773C268.053,-1.004 270.907,0.242 274.565,0.242C279.429,0.242 283.53,-2.09 283.53,-6.512C283.53,-10.291 281.077,-12.059 276.736,-13.225C273.118,-14.23 272.274,-14.873 272.274,-16.28C272.274,-17.567 273.439,-18.411 275.49,-18.411C277.379,-18.411 279.067,-17.808 280.836,-16.682L282.846,-19.697C280.836,-21.265 278.344,-22.23 275.289,-22.23M294.102,-16.039C292.293,-16.039 290.886,-14.552 290.886,-12.783C290.886,-11.014 292.293,-9.527 294.102,-9.527C295.951,-9.527 297.398,-11.014 297.398,-12.783C297.398,-14.552 295.951,-16.039 294.102,-16.039M318.222,-28.742C311.267,-28.742 305.478,-23.677 305.478,-14.27C305.478,-4.743 309.82,0.242 317.739,0.242C321.237,0.242 324.533,-0.803 327.307,-2.492L327.307,-16.079L317.337,-16.079L317.337,-12.14L322.081,-12.14L322.081,-4.904C320.754,-4.14 319.227,-3.818 317.659,-3.818C313.317,-3.818 311.066,-6.673 311.066,-14.27C311.066,-21.748 314.443,-24.722 318.382,-24.722C320.754,-24.722 322.322,-23.999 324.211,-22.511L327.066,-25.486C324.734,-27.456 322.081,-28.742 318.222,-28.742M349.818,-11.497C349.818,-18.21 346.401,-22.23 340.452,-22.23C334.422,-22.23 331.005,-17.326 331.005,-10.853C331.005,-4.14 334.542,0.242 341.135,0.242C344.351,0.242 346.924,-0.924 349.014,-2.612L346.884,-5.547C345.034,-4.261 343.467,-3.658 341.577,-3.658C338.763,-3.658 336.753,-5.065 336.351,-9.406L349.698,-9.406C349.738,-9.969 349.818,-10.813 349.818,-11.497M344.713,-12.743L336.351,-12.743C336.633,-16.964 338.16,-18.572 340.572,-18.572C343.467,-18.572 344.713,-16.481 344.713,-12.984L344.713,-12.743ZM364.732,-22.19C362.24,-22.19 360.19,-20.501 359.185,-17.446L358.702,-21.627L354.24,-21.627L354.24,-0.361L359.386,-0.361L359.386,-11.698C360.19,-15.275 361.516,-17.165 364.089,-17.165C364.853,-17.165 365.335,-17.084 365.979,-16.924L366.863,-21.908C366.18,-22.109 365.496,-22.19 364.732,-22.19M392.43,-22.23C389.616,-22.23 387.646,-20.863 386.038,-18.652C385.234,-20.903 383.385,-22.23 380.893,-22.23C378.199,-22.23 376.27,-20.984 374.742,-18.853L374.34,-21.627L369.878,-21.627L369.878,-0.361L375.023,-0.361L375.023,-15.155C376.189,-17.125 377.275,-18.371 379.084,-18.371C380.33,-18.371 381.415,-17.607 381.415,-14.954L381.415,-0.361L386.561,-0.361L386.561,-15.155C387.727,-17.125 388.812,-18.371 390.581,-18.371C391.867,-18.371 392.912,-17.607 392.912,-14.954L392.912,-0.361L398.058,-0.361L398.058,-15.758C398.058,-19.778 395.807,-22.23 392.43,-22.23M419.404,-5.989L419.404,-14.914C419.404,-19.617 416.911,-22.23 411.203,-22.23C408.831,-22.23 406.138,-21.707 403.525,-20.702L404.69,-17.205C406.861,-17.929 408.911,-18.331 410.359,-18.331C413.092,-18.331 414.338,-17.406 414.338,-14.632L414.338,-13.426L411.645,-13.426C405.454,-13.426 401.997,-10.934 401.997,-6.311C401.997,-2.452 404.61,0.242 408.831,0.242C411.404,0.242 413.695,-0.683 415.223,-2.934C416.027,-0.844 417.554,-0.04 419.926,0.161L421.012,-3.256C419.966,-3.658 419.404,-4.261 419.404,-5.989M410.238,-3.497C408.268,-3.497 407.223,-4.663 407.223,-6.713C407.223,-9.205 408.871,-10.411 412.208,-10.411L414.338,-10.411L414.338,-6.11C413.374,-4.421 412.007,-3.497 410.238,-3.497M436.77,-22.23C434.077,-22.23 431.946,-20.984 430.298,-18.853L429.896,-21.627L425.434,-21.627L425.434,-0.361L430.579,-0.361L430.579,-15.155C431.825,-17.125 433.192,-18.371 435.041,-18.371C436.649,-18.371 437.654,-17.607 437.654,-14.954L437.654,-0.361L442.8,-0.361L442.8,-15.758C442.8,-19.818 440.589,-22.23 436.77,-22.23M465.513,-21.627L460.206,-21.627L455.382,-3.778L450.759,-21.627L445.292,-21.627L452.046,-0.361L453.814,-0.361C452.608,2.654 451.242,4.021 447.021,4.664L447.543,8.402C453.855,7.92 456.99,4.704 458.598,-0.281L465.513,-21.627Z" style="fill:rgb(112,115,119);fill-rule:nonzero;"/>
        </g>
    </g>
</svg>
