<?xml version="1.0" encoding="utf-8"?>
<!-- Generator: Adobe Illustrator 21.1.0, SVG Export Plug-In . SVG Version: 6.00 Build 0)  -->
<svg version="1.1" id="Ebene_1" xmlns="http://www.w3.org/2000/svg"
	xmlns:xlink="http://www.w3.org/1999/xlink" x="0px" y="0px"
	viewBox="0 0 143 35" style="enable-background:new 0 0 143 35;" xml:space="preserve">
<style type="text/css">
	.st0{clip-path:url(#SVGID_2_);fill:#009EE2;}
	.st1{clip-path:url(#SVGID_2_);fill:#FFFFFF;}
	.st2{clip-path:url(#SVGID_2_);fill:#2A2A2A;}
</style>
<g>
	<defs>
		<rect id="SVGID_1_" width="143" height="35"/>
	</defs>
	<clipPath id="SVGID_2_">
		<use xlink:href="#SVGID_1_"  style="overflow:visible;"/>
	</clipPath>
	<path class="st0" d="M35,24.3v-9.4v-4V0h-6.4c0,0-1.8,0-1.8,1.8v2.9v1.4c0,1.2-1.2,1.2-1.2,1.2h-2.8c-1.2,0-1.2-1.2-1.2-1.2
		s0-1.4,0-1.4V1.8c0,0,0-1.8-1.8-1.8h-4.7c0,0-1.8,0-1.8,1.8v2.9v1.4c0,1.2-1.2,1.2-1.2,1.2H9.4c-1.2,0-1.2-1.2-1.2-1.2V4.7V1.8
		c0,0,0-1.8-1.8-1.8H0v12.2v2.6v9.4c0,0,0,3.7,3.4,5.1L17.5,35l14.1-5.6C35,28,35,24.3,35,24.3"/>
	<path class="st1" d="M25.9,22.4h1.9l0.4-1.2h2.4l0.4,1.2h1.9l-2.6-6.9h-1.8L25.9,22.4z M29.4,17.4L29.4,17.4l0.8,2.4h-1.6
		L29.4,17.4z M21.4,16.8h1.4c0.4,0,0.7,0.2,0.7,0.7c0,0.5-0.4,0.7-0.7,0.7h-1.4V16.8z M19.6,22.4H23c1.5,0,2.7-0.5,2.7-2.1
		c0-0.8-0.5-1.4-1.2-1.6c0.5-0.3,0.9-0.8,0.9-1.4c0-1.4-1.3-1.8-2.5-1.7h-3.2V22.4z M21.4,19.3h1.4c0.5,0,1,0.2,1,0.8
		c0,0.6-0.4,0.8-1,0.8h-1.4V19.3z M13.6,18.9c0-1,0.4-2.1,1.6-2.1s1.6,1,1.6,2.1c0,1-0.4,2.1-1.6,2.1S13.6,19.9,13.6,18.9
		 M11.8,18.9c0,2,1.2,3.6,3.4,3.6s3.4-1.6,3.4-3.6c0-2-1.2-3.6-3.4-3.6S11.8,16.9,11.8,18.9 M11.5,15.4H9.7l-1,5.1h0l-1-5.1H6
		l-1,5.1h0l-1-5.1H2.2L4,22.4h1.8l0.9-4.8h0l0.9,4.8h1.8L11.5,15.4z"/>
	<path class="st2" d="M126.4,34.8h1.7v-3.4h3.2v3.4h1.7v-7.9h-1.7v3h-3.2v-3h-1.7V34.8z M125,29.5c-0.2-1.8-1.7-2.9-3.4-2.9
		c-2.5,0-3.9,1.8-3.9,4.2c0,2.3,1.4,4.1,3.9,4.1c1.9,0,3.3-1.3,3.5-3.2h-1.7c-0.1,1-0.7,1.8-1.8,1.8c-1.6,0-2.2-1.3-2.2-2.7
		c0-1.4,0.6-2.7,2.2-2.7c0.9,0,1.6,0.6,1.7,1.4H125z M113.3,28.8L113.3,28.8l1,2.9h-2.1L113.3,28.8z M109.4,34.8h1.8l0.6-1.8h3
		l0.6,1.8h1.8l-3-7.9h-1.8L109.4,34.8z M104,28.2h1.6c0.6,0,1.2,0.2,1.2,0.9c0,0.7-0.5,0.9-1.1,0.9H104V28.2z M102.3,34.8h3.8
		c1.4,0,2.8-0.7,2.8-2.3c0-1-0.5-1.7-1.5-2c0.7-0.3,1.1-0.9,1.1-1.7c0-1.5-1-2-2.5-2h-3.7V34.8z M104,31.3h1.9
		c0.7,0,1.3,0.3,1.3,1.1c0,0.8-0.6,1-1.3,1H104V31.3z M93.9,34.8h1.6v-5.3h0l3.3,5.3h1.7v-7.9h-1.6v5.3h0l-3.3-5.3h-1.7V34.8z
		 M86.5,34.8h6v-1.5h-4.3v-1.9h3.8V30h-3.8v-1.7h4.2v-1.5h-5.9V34.8z M78.1,34.8h1.7v-3.4H83v3.4h1.7v-7.9H83v3h-3.2v-3h-1.7V34.8z
		 M76.7,29.5c-0.2-1.8-1.7-2.9-3.4-2.9c-2.5,0-3.9,1.8-3.9,4.2c0,2.3,1.4,4.1,3.9,4.1c1.9,0,3.3-1.3,3.5-3.2H75
		c-0.1,1-0.7,1.8-1.8,1.8c-1.6,0-2.2-1.3-2.2-2.7c0-1.4,0.6-2.7,2.2-2.7c0.9,0,1.6,0.6,1.7,1.4H76.7z M66.2,34.8H68v-7.9h-1.7V34.8z
		 M58.9,34.8h6v-1.5h-4.3v-1.9h3.8V30h-3.8v-1.7h4.2v-1.5h-5.9V34.8z M52.4,28.2h1.9c0.8,0,1.2,0.3,1.2,1.1c0,0.8-0.4,1.1-1.2,1.1
		h-1.9V28.2z M50.7,34.8h1.7v-3.1h1.7c0.9,0,1.2,0.4,1.3,1.2c0.1,0.6,0.1,1.4,0.3,1.9h1.7c-0.3-0.4-0.3-1.4-0.3-1.9
		c-0.1-0.8-0.3-1.6-1.2-1.9v0c0.9-0.4,1.3-1.1,1.3-2c0-1.2-0.9-2.2-2.3-2.2h-4.3V34.8z"/>
	<path class="st2" d="M135.8,21.5h1.7V15h2.4v-1.5h-6.5V15h2.4V21.5z M127.2,21.5h1.7v-3.3h3.3v-1.4H129V15h3.8v-1.5h-5.6V21.5z
		 M122.5,15.5L122.5,15.5l1,2.9h-2.1L122.5,15.5z M118.6,21.5h1.8l0.6-1.8h3l0.6,1.8h1.8l-3-7.9h-1.8L118.6,21.5z M111,21.5h1.7V18
		h3.2v3.4h1.7v-7.9H116v3h-3.2v-3H111V21.5z M109.6,16.2c-0.2-1.8-1.7-2.9-3.4-2.9c-2.5,0-3.9,1.8-3.9,4.2c0,2.3,1.4,4.1,3.9,4.1
		c1.9,0,3.3-1.3,3.5-3.2H108c-0.1,1-0.7,1.8-1.8,1.8c-1.6,0-2.2-1.3-2.2-2.7c0-1.4,0.6-2.7,2.2-2.7c0.9,0,1.6,0.6,1.7,1.4H109.6z
		 M94.8,18.8c0,2,1.6,2.8,3.4,2.8c2.2,0,3.3-1.1,3.3-2.5c0-1.8-1.8-2.2-2.4-2.3c-2-0.5-2.4-0.6-2.4-1.2c0-0.7,0.6-0.9,1.2-0.9
		c0.8,0,1.5,0.2,1.6,1.2h1.7c0-1.8-1.5-2.6-3.2-2.6c-1.4,0-3,0.8-3,2.4c0,1.5,1.2,1.9,2.4,2.3c1.2,0.3,2.4,0.5,2.4,1.3
		c0,0.8-0.9,1-1.5,1c-0.9,0-1.8-0.4-1.8-1.5H94.8z M88.5,21.5h5.6V20h-3.9v-6.5h-1.7V21.5z M81.7,21.5h5.6V20h-3.9v-6.5h-1.7V21.5z
		 M74.4,21.5h6V20h-4.3v-1.9H80v-1.4h-3.8V15h4.2v-1.5h-5.9V21.5z M66.5,18.8c0,2,1.6,2.8,3.4,2.8c2.2,0,3.3-1.1,3.3-2.5
		c0-1.8-1.8-2.2-2.4-2.3c-2-0.5-2.4-0.6-2.4-1.2c0-0.7,0.6-0.9,1.2-0.9c0.8,0,1.5,0.2,1.6,1.2h1.7c0-1.8-1.5-2.6-3.2-2.6
		c-1.4,0-3,0.8-3,2.4c0,1.5,1.2,1.9,2.4,2.3c1.2,0.3,2.4,0.5,2.4,1.3c0,0.8-0.9,1-1.5,1c-0.9,0-1.8-0.4-1.8-1.5H66.5z M59.6,21.5h6
		V20h-4.3v-1.9h3.8v-1.4h-3.8V15h4.2v-1.5h-5.9V21.5z M56.9,21.5H58v-4.3h-3.3v1.3h1.8c-0.1,1.1-0.8,1.7-1.9,1.7
		c-1.6,0-2.2-1.3-2.2-2.7c0-1.4,0.6-2.7,2.2-2.7c0.8,0,1.5,0.5,1.7,1.3h1.7c-0.2-1.8-1.7-2.8-3.3-2.8c-2.5,0-3.9,1.8-3.9,4.2
		c0,2.3,1.4,4.1,3.9,4.1c0.8,0,1.6-0.3,2.2-1.1L56.9,21.5z"/>
	<path class="st2" d="M143,0.2h-1.7v4.9c0,1.2-0.4,1.7-1.6,1.7c-1.4,0-1.6-0.9-1.6-1.7V0.2h-1.7v4.9c0,2.2,1.2,3.2,3.4,3.2
		c2.1,0,3.4-1,3.4-3.2V0.2z M131.5,2.1L131.5,2.1l1,2.9h-2.1L131.5,2.1z M127.6,8.1h1.8l0.6-1.8h3l0.6,1.8h1.8l-3-7.9h-1.8
		L127.6,8.1z M122.2,1.5h1.6c0.6,0,1.2,0.2,1.2,0.9c0,0.7-0.5,0.9-1.1,0.9h-1.8V1.5z M120.5,8.1h3.8c1.4,0,2.8-0.7,2.8-2.3
		c0-1-0.5-1.7-1.5-2c0.7-0.3,1.1-0.9,1.1-1.7c0-1.5-1-2-2.5-2h-3.7V8.1z M122.2,4.6h1.9c0.7,0,1.3,0.3,1.3,1.1c0,0.8-0.6,1-1.3,1
		h-1.9V4.6z M112.6,5.5c0,2,1.6,2.8,3.4,2.8c2.2,0,3.3-1.1,3.3-2.5c0-1.8-1.8-2.2-2.4-2.3c-2-0.5-2.4-0.6-2.4-1.2
		c0-0.7,0.6-0.9,1.2-0.9c0.8,0,1.5,0.2,1.6,1.2h1.7c0-1.8-1.5-2.6-3.2-2.6c-1.4,0-3,0.8-3,2.4c0,1.5,1.2,1.9,2.4,2.3
		c1.2,0.3,2.4,0.5,2.4,1.3c0,0.8-0.9,1-1.5,1c-0.9,0-1.8-0.4-1.8-1.5H112.6z M110.4,8.1h1.1V3.8h-3.3v1.3h1.8
		c-0.1,1.1-0.8,1.7-1.9,1.7c-1.6,0-2.2-1.3-2.2-2.7c0-1.4,0.6-2.7,2.2-2.7c0.8,0,1.5,0.5,1.7,1.3h1.7C111.2,1,109.7,0,108.1,0
		c-2.5,0-3.9,1.8-3.9,4.2c0,2.3,1.4,4.1,3.9,4.1c0.8,0,1.6-0.3,2.2-1.1L110.4,8.1z M96.1,8.1h1.6V2.8h0l3.3,5.3h1.7V0.2h-1.6v5.3h0
		l-3.3-5.3h-1.7V8.1z M94.4,0.2h-1.7v4.9c0,1.2-0.4,1.7-1.6,1.7c-1.4,0-1.6-0.9-1.6-1.7V0.2h-1.7v4.9c0,2.2,1.2,3.2,3.4,3.2
		c2.1,0,3.4-1,3.4-3.2V0.2z M79.3,8.1h1.6V2.8h0l3.3,5.3H86V0.2h-1.6v5.3h0L81,0.2h-1.7V8.1z M70.9,8.1h1.7V4.7h3.2v3.4h1.7V0.2
		h-1.7v3h-3.2v-3h-1.7V8.1z M63.5,4.2c0-1.4,0.6-2.7,2.2-2.7s2.2,1.3,2.2,2.7c0,1.3-0.6,2.7-2.2,2.7S63.5,5.5,63.5,4.2 M61.7,4.2
		c0,2.3,1.4,4.1,3.9,4.1c2.5,0,3.9-1.8,3.9-4.1c0-2.4-1.4-4.2-3.9-4.2C63.2,0,61.7,1.8,61.7,4.2 M61.1,0.2h-1.7l-1.3,5.5h0l-1.4-5.5
		h-1.6l-1.4,5.4h0l-1.3-5.4h-1.7l2.1,7.9h1.8l1.3-5.4h0l1.3,5.4H59L61.1,0.2z"/>
</g>
</svg>